<svg width="138" height="20" viewBox="0 0 138 20" fill="none" xmlns="http://www.w3.org/2000/svg">
<path d="M12.4729 0.000442108C12.5921 0.000583853 12.7113 0.000365189 12.8306 0.000196609C13.0631 -7.5461e-05 13.2957 -1.94312e-05 13.5283 0.000160377C13.7176 0.000300583 13.9069 0.000318193 14.0962 0.000251435C14.1233 0.000241983 14.1504 0.000232531 14.1783 0.000222792C14.2334 0.000203067 14.2885 0.000183068 14.3436 0.000162799C14.8437 -7.47155e-06 15.3438 0.000168099 15.8439 0.000492355C16.2986 0.00078493 16.7533 0.000758866 17.208 0.000463919C17.721 0.000132234 18.2341 4.55469e-06 18.7471 0.000193263C18.802 0.000212909 18.8568 0.000232301 18.9117 0.000251435C18.9522 0.00026571 18.9522 0.00026571 18.9935 0.000280273C19.1822 0.00033316 19.3709 0.000244445 19.5596 9.8485e-05C19.7901 -7.59314e-05 20.0206 -2.47774e-05 20.2511 0.000300856C20.3684 0.000461101 20.4856 0.000529718 20.6028 0.000322498C21.3696 -0.000915013 22.1103 0.0373826 22.8617 0.19356C22.8846 0.198301 22.9076 0.203042 22.9312 0.207927C23.4198 0.311314 23.8999 0.469077 24.3645 0.645914C24.3791 0.65144 24.3936 0.656966 24.4086 0.66266C25.3214 1.01121 26.1447 1.5044 26.8979 2.10578C26.9173 2.12125 26.9173 2.12125 26.9371 2.13703C27.2651 2.39987 27.5869 2.67728 27.864 2.98993C27.8817 3.0096 27.8993 3.02926 27.9175 3.04953C28.0307 3.17612 28.1408 3.30463 28.2474 3.43643C28.3068 3.50976 28.3679 3.5814 28.4299 3.65272C28.5253 3.76411 28.6106 3.87979 28.6933 4.00002C28.7078 4.02109 28.7224 4.04216 28.7374 4.06387C28.957 4.38443 29.1732 4.71075 29.3428 5.05866C29.3722 5.11878 29.4023 5.17859 29.4323 5.23845C29.5765 5.52835 29.707 5.82063 29.8193 6.12343C29.8372 6.17175 29.8557 6.21988 29.8743 6.26797C30.2471 7.23795 30.2471 7.23795 30.2471 7.61628C30.264 7.6158 30.2809 7.61532 30.2983 7.61483C30.9847 7.60394 31.642 7.89719 32.1309 8.35005C32.2707 8.48446 32.3951 8.62785 32.5013 8.78829C32.5118 8.80374 32.5222 8.81919 32.533 8.83511C32.7592 9.18234 32.8952 9.53851 32.9737 9.93973C32.9774 9.9585 32.9811 9.97726 32.985 9.99659C33.0018 10.1067 32.9991 10.2167 32.9991 10.3278C32.9992 10.3695 32.9995 10.4112 33 10.4528C33.0012 10.7202 32.9736 10.9788 32.8851 11.2338C32.8786 11.253 32.872 11.2722 32.8653 11.2919C32.7342 11.664 32.5241 12.0217 32.2285 12.2968C32.1752 12.3425 32.1752 12.3425 32.1578 12.4071C32.0982 12.4604 32.0301 12.5045 31.9646 12.551C31.9405 12.569 31.9163 12.5869 31.8922 12.6049C31.4168 12.9552 30.8494 13.157 30.2471 13.1473C30.2404 13.1818 30.2404 13.1818 30.2336 13.217C30.1908 13.4326 30.1409 13.6462 30.0861 13.8593C30.08 13.8834 30.0739 13.9075 30.0676 13.9323C30.0355 14.0551 29.9986 14.1715 29.9473 14.2882C29.9227 14.3454 29.901 14.4032 29.8797 14.4616C29.7918 14.7018 29.701 14.9349 29.5815 15.1624C29.5677 15.1893 29.5539 15.2163 29.5401 15.2432C29.4068 15.5026 29.2685 15.7596 29.1092 16.0054C29.0927 16.0313 29.0761 16.0572 29.0596 16.0831C28.954 16.2476 28.8436 16.4059 28.7228 16.5605C28.6955 16.5969 28.6682 16.6334 28.6409 16.6698C28.4884 16.8701 28.3301 17.0639 28.1535 17.2453C28.1124 17.2881 28.0728 17.3313 28.0333 17.3754C27.9422 17.4755 27.8445 17.5693 27.7462 17.663C27.7151 17.6927 27.6842 17.7224 27.6532 17.7522C27.5411 17.8597 27.4267 17.9631 27.3058 18.0615C27.2813 18.082 27.2568 18.1025 27.2323 18.1231C26.1361 19.0353 24.7942 19.6282 23.371 19.881C23.3197 19.8902 23.2687 19.9 23.2176 19.9101C22.8243 19.9861 22.4327 20.0004 22.0324 19.9995C21.9825 19.9996 21.9327 19.9997 21.8828 19.9997C21.7469 19.9999 21.611 19.9998 21.4751 19.9997C21.3432 19.9996 21.2114 19.9997 21.0795 19.9998C20.7934 20 20.5074 20 20.2213 19.9999C19.971 19.9998 19.7207 19.9998 19.4704 19.9998C19.4537 19.9998 19.4371 19.9998 19.42 19.9998C19.3524 19.9999 19.2848 19.9999 19.2172 19.9999C18.5842 20 17.9512 19.9999 17.3182 19.9997C16.7564 19.9995 16.1947 19.9995 15.633 19.9997C15.001 19.9999 14.3689 20 13.7369 19.9999C13.6695 19.9999 13.6021 19.9998 13.5347 19.9998C13.5181 19.9998 13.5015 19.9998 13.4843 19.9998C13.2342 19.9998 12.9841 19.9998 12.734 19.9999C12.4495 20 12.165 20 11.8805 19.9998C11.7354 19.9997 11.5904 19.9996 11.4453 19.9998C11.3124 19.9999 11.1794 19.9998 11.0465 19.9996C10.9986 19.9996 10.9506 19.9996 10.9027 19.9997C10.6344 20.0002 10.3748 19.9902 10.109 19.9532C10.0799 19.9494 10.0507 19.9456 10.0216 19.9418C9.41837 19.8632 8.81722 19.7415 8.25157 19.5214C8.20255 19.5025 8.1533 19.4846 8.10376 19.467C7.22046 19.148 6.3526 18.6267 5.66223 18.0089C5.59386 17.9478 5.52514 17.8878 5.45434 17.8293C5.35649 17.7476 5.26419 17.6611 5.17247 17.5732C5.15547 17.5569 5.13846 17.5406 5.12095 17.5239C5.01549 17.4219 4.917 17.3186 4.82469 17.2054C4.78505 17.1573 4.74332 17.1121 4.70015 17.0669C3.98173 16.2988 3.47098 15.3446 3.11009 14.381C3.1034 14.3634 3.09671 14.3458 3.08982 14.3277C2.77963 13.5066 2.77963 13.5066 2.78805 13.1473C2.76699 13.148 2.74593 13.1488 2.72423 13.1495C2.20565 13.1617 1.63071 12.9903 1.22081 12.6744C1.20577 12.6474 1.19133 12.62 1.17787 12.5922C1.12512 12.5668 1.12512 12.5668 1.07052 12.551C1.05635 12.5443 1.04218 12.5375 1.02758 12.5305C1.02758 12.5169 1.02758 12.5033 1.02758 12.4894C1.00982 12.4823 1.00982 12.4823 0.99169 12.4751C0.678983 12.3068 0.488787 11.934 0.319102 11.6463C0.302787 11.6194 0.302787 11.6194 0.286143 11.592C-0.0430092 11.0132 -0.071036 10.2256 0.114642 9.60223C0.359735 8.83687 0.868188 8.24569 1.60322 7.86591C1.9537 7.69096 2.36973 7.58741 2.76658 7.61628C2.77154 7.59457 2.77649 7.57286 2.7816 7.5505C2.80068 7.46726 2.82008 7.3841 2.83961 7.30096C2.848 7.26517 2.85635 7.22936 2.86464 7.19355C2.92628 6.92851 3.003 6.67084 3.09236 6.41317C3.10863 6.36625 3.12463 6.31926 3.14053 6.27223C3.18302 6.14727 3.22758 6.02368 3.28 5.9022C3.3032 5.84824 3.32538 5.79394 3.34753 5.73958C3.75692 4.74208 4.3925 3.79765 5.14966 3.01049C5.18505 2.97328 5.22039 2.93601 5.25566 2.89869C5.27135 2.88218 5.28705 2.86566 5.30321 2.84865C5.34574 2.80358 5.34574 2.80358 5.38582 2.74319C5.39999 2.74319 5.41416 2.74319 5.42876 2.74319C5.43438 2.73104 5.44 2.7189 5.44579 2.70638C5.47314 2.65841 5.50113 2.62911 5.54273 2.59195C5.56395 2.5729 5.56395 2.5729 5.58559 2.55346C5.6007 2.54016 5.61581 2.52686 5.63137 2.51316C5.64692 2.49934 5.66247 2.48552 5.67849 2.47129C5.78008 2.38167 5.88393 2.29583 5.99199 2.21341C6.04923 2.16912 6.10494 2.12353 6.16051 2.07734C6.73526 1.5998 7.39002 1.2176 8.06946 0.892652C8.08671 0.884313 8.10395 0.875974 8.12172 0.867382C8.41784 0.724895 8.72453 0.610895 9.03557 0.501983C9.05431 0.49536 9.07305 0.488737 9.09236 0.481913C10.1869 0.0993936 11.3167 -0.0015991 12.4729 0.000442108Z" fill="#701236"/>
<path d="M11.8689 4.60384C12.0067 4.60407 12.1445 4.60382 12.2824 4.60364C12.536 4.60335 12.7896 4.60347 13.0432 4.60376C13.2775 4.60403 13.5118 4.60414 13.7461 4.60409C13.7696 4.60408 13.7696 4.60408 13.7935 4.60408C13.8569 4.60406 13.9204 4.60405 13.9838 4.60403C14.5772 4.60389 15.1705 4.6042 15.7639 4.60474C16.2898 4.60522 16.8157 4.60533 17.3415 4.60512C17.4764 4.60507 17.6112 4.60501 17.746 4.60496C17.7626 4.60496 17.7792 4.60495 17.7963 4.60495C18.2373 4.60479 18.6783 4.60492 19.1193 4.60514C19.1668 4.60517 19.2143 4.60519 19.2618 4.60521C19.2933 4.60523 19.3248 4.60524 19.3563 4.60526C19.5905 4.60538 19.8246 4.60535 20.0587 4.60526C20.3251 4.60515 20.5915 4.60528 20.8579 4.60569C20.9936 4.60589 21.1293 4.60599 21.2649 4.60583C21.3895 4.60568 21.514 4.60583 21.6386 4.60619C21.6833 4.60628 21.728 4.60626 21.7727 4.60612C22.2479 4.60479 22.7033 4.66109 23.1623 4.77878C23.1884 4.78533 23.2144 4.79188 23.2413 4.79862C23.5836 4.8885 23.9194 4.99378 24.2357 5.14889C24.2501 5.15583 24.2645 5.16277 24.2793 5.16992C24.6396 5.3446 24.9693 5.54872 25.2877 5.7863C25.3188 5.80904 25.3188 5.80904 25.3505 5.83224C25.5167 5.95754 25.6632 6.10108 25.811 6.24561C25.8699 6.30316 25.9291 6.36038 25.9898 6.41616C26.1026 6.5203 26.1996 6.63524 26.2968 6.75269C26.3141 6.77352 26.3314 6.79436 26.3493 6.81582C26.7803 7.33951 27.1339 7.94001 27.3273 8.58267C27.337 8.61398 27.337 8.61398 27.3468 8.64592C27.4489 8.97829 27.5349 9.30859 27.5849 9.65187C27.5887 9.67613 27.5925 9.7004 27.5964 9.7254C27.6272 9.93753 27.6356 10.1459 27.6346 10.36C27.6345 10.3769 27.6345 10.3939 27.6345 10.4113C27.6332 10.8018 27.6025 11.1832 27.4906 11.5602C27.4753 11.6131 27.4612 11.6663 27.4472 11.7195C27.3141 12.2241 27.1364 12.6998 26.855 13.1473C26.8378 13.1771 26.8207 13.2069 26.8037 13.2367C26.099 14.4571 24.8286 15.3756 23.4481 15.7831C23.3067 15.8193 23.1635 15.8469 23.02 15.8743C22.9982 15.8786 22.9763 15.8828 22.9538 15.8872C22.8804 15.9006 22.8068 15.9121 22.7329 15.9231C22.6939 15.929 22.6939 15.929 22.6541 15.935C22.2946 15.9815 21.9319 15.9619 21.5704 15.9525C21.3735 15.9474 21.1766 15.9431 20.9797 15.9388C20.9329 15.9378 20.8861 15.9367 20.8392 15.9357C20.4702 15.9275 20.1012 15.9212 19.7322 15.9165C19.7071 15.9162 19.6819 15.9159 19.6561 15.9155C19.3965 15.9122 19.1369 15.9092 18.8774 15.9063C18.7443 15.9048 18.6112 15.9032 18.4781 15.9016C18.4384 15.9011 18.4384 15.9011 18.3979 15.9006C17.9713 15.8954 17.5449 15.8854 17.1184 15.8738C16.6779 15.8618 16.2375 15.8552 15.7968 15.8533C15.5503 15.8521 15.3044 15.8485 15.0581 15.8388C13.8099 15.7853 13.8099 15.7853 12.7466 16.3395C12.4201 16.6288 12.0067 16.9968 11.8051 17.383C11.7909 17.383 11.7768 17.383 11.7622 17.383C11.7622 17.3966 11.7622 17.4102 11.7622 17.4241C11.7318 17.4528 11.7318 17.4528 11.6891 17.4865C11.5824 17.5735 11.4839 17.6671 11.3851 17.7621C11.359 17.787 11.359 17.787 11.3323 17.8124C11.2412 17.8999 11.1539 17.9889 11.0698 18.0825C11.0009 18.1572 10.9273 18.2275 10.8538 18.298C10.8307 18.3204 10.8307 18.3204 10.8073 18.3433C10.7926 18.3574 10.7779 18.3715 10.7628 18.386C10.7496 18.3988 10.7363 18.4115 10.7227 18.4246C10.6887 18.4522 10.6887 18.4522 10.6458 18.4522C10.6458 17.6244 10.6458 16.7966 10.6458 15.9437C10.5608 15.9437 10.4757 15.9437 10.3881 15.9437C10.3039 15.9324 10.3039 15.9324 10.2311 15.9167C10.2039 15.911 10.1767 15.9053 10.1487 15.8994C10.1214 15.8937 10.0942 15.8879 10.0661 15.882C10.0133 15.8726 9.96056 15.8631 9.90777 15.8537C9.60753 15.7959 9.31939 15.7033 9.03558 15.5942C8.99611 15.5791 8.99611 15.5791 8.95583 15.5637C8.77426 15.4921 8.60081 15.4066 8.42774 15.3179C8.40648 15.3071 8.38523 15.2963 8.36333 15.2851C8.21317 15.2069 8.07715 15.1167 7.94066 15.0184C7.90135 14.9914 7.862 14.9644 7.82258 14.9375C7.65665 14.8217 7.4967 14.701 7.35395 14.5594C7.31535 14.5224 7.27497 14.4884 7.23352 14.4543C7.08464 14.331 6.95154 14.1956 6.82426 14.052C6.80865 14.0348 6.79305 14.0176 6.77696 13.9998C6.50158 13.691 6.27366 13.3609 6.07284 13.0034C6.06527 12.9899 6.05769 12.9765 6.04989 12.9626C5.87851 12.6547 5.74251 12.3314 5.64346 11.9959C5.63762 11.9766 5.63178 11.9574 5.62576 11.9375C5.24633 10.6805 5.30672 9.29147 5.87962 8.08919C5.89273 8.06131 5.89273 8.06131 5.9061 8.03287C6.04708 7.7353 6.20223 7.45429 6.39488 7.18448C6.40434 7.17122 6.41381 7.15796 6.42356 7.1443C6.47571 7.07186 6.52916 7.00046 6.5839 6.92979C6.60925 6.89704 6.63428 6.86406 6.6593 6.83108C6.80705 6.64086 6.97399 6.47026 7.1463 6.30034C7.1602 6.28658 7.17409 6.27282 7.18841 6.25864C7.3521 6.09716 7.51746 5.94377 7.7045 5.80686C7.71736 5.7973 7.73023 5.78774 7.74348 5.77789C8.36324 5.31776 9.07229 4.97599 9.8286 4.7775C9.85239 4.77081 9.87617 4.76411 9.90068 4.75722C10.544 4.58876 11.208 4.60229 11.8689 4.60384Z" fill="#FDFDFC"/>
<path d="M21.5521 7.53404C21.5747 7.54274 21.5973 7.55143 21.6206 7.56039C21.9938 7.72071 22.3021 8.05232 22.4481 8.41648C22.5897 8.82054 22.55 9.25102 22.3652 9.63261C22.2031 9.92854 21.9871 10.148 21.6809 10.3099C21.6641 10.3192 21.6473 10.3286 21.6301 10.3382C21.3287 10.4967 20.9125 10.5319 20.5783 10.4563C20.499 10.4324 20.4253 10.4048 20.3498 10.3715C20.3254 10.3609 20.3009 10.3502 20.2757 10.3392C20.1132 10.2616 19.9843 10.1649 19.856 10.0426C19.8434 10.0314 19.8309 10.0203 19.8179 10.0088C19.7916 9.98087 19.7916 9.98087 19.7916 9.93974C19.7774 9.93974 19.7633 9.93974 19.7487 9.93974C19.7156 9.89927 19.6863 9.85947 19.6574 9.81637C19.6489 9.80364 19.6403 9.79091 19.6315 9.77779C19.462 9.51558 19.4011 9.25661 19.3998 8.9515C19.3993 8.92533 19.3989 8.89916 19.3985 8.87219C19.3967 8.4616 19.5808 8.11554 19.8721 7.81805C20.3167 7.41534 20.9904 7.31055 21.5521 7.53404Z" fill="#701236"/>
<path d="M13.0018 7.72183C13.0579 7.76627 13.1088 7.81122 13.1576 7.86303C13.17 7.87485 13.1825 7.88667 13.1953 7.89885C13.5019 8.20345 13.6384 8.59514 13.6346 9.01359C13.6175 9.43529 13.4179 9.78766 13.1147 10.0837C13.1015 10.0968 13.0883 10.1099 13.0748 10.1234C12.7674 10.4058 12.3437 10.4849 11.9356 10.48C11.569 10.4691 11.2455 10.3085 10.9892 10.0631C10.9761 10.0522 10.963 10.0414 10.9495 10.0302C10.7667 9.87434 10.6318 9.6266 10.5599 9.40515C10.5535 9.38617 10.5471 9.36719 10.5406 9.34764C10.4196 8.92878 10.4981 8.52135 10.7168 8.14832C10.9338 7.80626 11.2305 7.58845 11.6284 7.46296C12.1039 7.35209 12.6144 7.43516 13.0018 7.72183Z" fill="#701236"/>
<path d="M15.1101 12.1958C15.1484 12.1955 15.1484 12.1955 15.1875 12.1952C15.2154 12.1952 15.2432 12.1952 15.2719 12.1952C15.3017 12.195 15.3315 12.1949 15.3612 12.1947C15.442 12.1942 15.5227 12.194 15.6034 12.1939C15.6539 12.1939 15.7044 12.1937 15.7549 12.1936C15.9312 12.1931 16.1075 12.1928 16.2838 12.1927C16.4479 12.1927 16.612 12.192 16.776 12.1912C16.9171 12.1905 17.0582 12.1901 17.1993 12.1901C17.2834 12.1901 17.3676 12.1899 17.4518 12.1894C17.531 12.1888 17.6102 12.1888 17.6894 12.1891C17.7321 12.1892 17.7749 12.1887 17.8176 12.1882C17.9706 12.1894 18.088 12.2004 18.203 12.3043C18.2703 12.4171 18.2641 12.5752 18.2352 12.7002C18.2192 12.7473 18.2006 12.7929 18.1815 12.8389C18.174 12.8601 18.1664 12.8814 18.1586 12.9033C18.1023 13.0568 18.0362 13.1701 17.9239 13.2912C17.9081 13.3102 17.8923 13.3292 17.8761 13.3488C17.6178 13.6443 17.2237 13.8697 16.8223 13.9229C16.2299 13.9661 15.7887 13.8578 15.3119 13.5178C15.0752 13.3221 14.8196 12.9575 14.7847 12.6542C14.7821 12.609 14.7814 12.5641 14.7813 12.5189C14.7808 12.5036 14.7803 12.4884 14.7797 12.4727C14.7793 12.3951 14.7841 12.354 14.8261 12.2857C14.9131 12.2094 14.9945 12.1963 15.1101 12.1958Z" fill="#701236"/>
<path d="M36.8849 16V5.81818H39.0376V10.3075H39.1719L42.8359 5.81818H45.4162L41.6378 10.3771L45.4609 16H42.8857L40.0966 11.8139L39.0376 13.1065V16H36.8849ZM48.6154 11.5852V16H46.4975V8.36364H48.516V9.71094H48.6055C48.7745 9.26681 49.0579 8.91548 49.4556 8.65696C49.8533 8.39512 50.3356 8.2642 50.9023 8.2642C51.4326 8.2642 51.895 8.38021 52.2894 8.61222C52.6838 8.84422 52.9904 9.17566 53.2092 9.60653C53.4279 10.0341 53.5373 10.5445 53.5373 11.1378V16H51.4194V11.5156C51.4227 11.0483 51.3034 10.6837 51.0614 10.4219C50.8195 10.1567 50.4864 10.0241 50.0621 10.0241C49.7771 10.0241 49.5252 10.0855 49.3065 10.2081C49.091 10.3307 48.922 10.5097 48.7994 10.745C48.68 10.977 48.6187 11.2571 48.6154 11.5852ZM58.6568 16.1491C57.8845 16.1491 57.2167 15.9851 56.6532 15.657C56.0931 15.3255 55.6606 14.8648 55.3556 14.2749C55.0507 13.6816 54.8983 12.9938 54.8983 12.2116C54.8983 11.4228 55.0507 10.7334 55.3556 10.1435C55.6606 9.55019 56.0931 9.08949 56.6532 8.76136C57.2167 8.42992 57.8845 8.2642 58.6568 8.2642C59.429 8.2642 60.0952 8.42992 60.6554 8.76136C61.2188 9.08949 61.653 9.55019 61.9579 10.1435C62.2628 10.7334 62.4153 11.4228 62.4153 12.2116C62.4153 12.9938 62.2628 13.6816 61.9579 14.2749C61.653 14.8648 61.2188 15.3255 60.6554 15.657C60.0952 15.9851 59.429 16.1491 58.6568 16.1491ZM58.6667 14.5085C59.0181 14.5085 59.3114 14.4091 59.5467 14.2102C59.782 14.008 59.9593 13.733 60.0787 13.3849C60.2013 13.0369 60.2626 12.6409 60.2626 12.1967C60.2626 11.7526 60.2013 11.3565 60.0787 11.0085C59.9593 10.6605 59.782 10.3854 59.5467 10.1832C59.3114 9.98106 59.0181 9.87997 58.6667 9.87997C58.3121 9.87997 58.0138 9.98106 57.7718 10.1832C57.5332 10.3854 57.3526 10.6605 57.2299 11.0085C57.1106 11.3565 57.051 11.7526 57.051 12.1967C57.051 12.6409 57.1106 13.0369 57.2299 13.3849C57.3526 13.733 57.5332 14.008 57.7718 14.2102C58.0138 14.4091 58.3121 14.5085 58.6667 14.5085ZM65.1074 16L63.0293 8.36364H65.1721L66.3553 13.4943H66.4249L67.6578 8.36364H69.7608L71.0137 13.4645H71.0783L72.2417 8.36364H74.3794L72.3063 16H70.0641L68.7516 11.1974H68.6571L67.3446 16H65.1074ZM77.6271 5.81818V16H75.5092V5.81818H77.6271ZM82.8038 16.1491C82.0183 16.1491 81.3422 15.9901 80.7754 15.6719C80.2119 15.3504 79.7778 14.8963 79.4728 14.3097C79.1679 13.7197 79.0154 13.022 79.0154 12.2166C79.0154 11.4311 79.1679 10.7417 79.4728 10.1484C79.7778 9.55516 80.207 9.0928 80.7605 8.76136C81.3173 8.42992 81.9702 8.2642 82.7193 8.2642C83.2231 8.2642 83.6921 8.34541 84.1262 8.50781C84.5637 8.6669 84.9449 8.9072 85.2697 9.22869C85.5978 9.55019 85.853 9.95455 86.0353 10.4418C86.2176 10.9257 86.3088 11.4924 86.3088 12.142V12.7237H79.8606V11.4112H84.3152C84.3152 11.1063 84.2489 10.8362 84.1163 10.6009C83.9837 10.3655 83.7998 10.1816 83.5645 10.049C83.3324 9.91312 83.0623 9.84517 82.7541 9.84517C82.4326 9.84517 82.1475 9.91974 81.899 10.0689C81.6537 10.2147 81.4615 10.4119 81.3223 10.6605C81.1831 10.9058 81.1118 11.1792 81.1085 11.4808V12.7287C81.1085 13.1065 81.1781 13.433 81.3173 13.7081C81.4598 13.9832 81.6603 14.1953 81.9189 14.3445C82.1774 14.4936 82.484 14.5682 82.8386 14.5682C83.0739 14.5682 83.2894 14.535 83.4849 14.4688C83.6805 14.4025 83.8478 14.303 83.987 14.1705C84.1262 14.0379 84.2323 13.8755 84.3052 13.6832L86.264 13.8125C86.1646 14.2831 85.9608 14.6941 85.6525 15.0455C85.3476 15.3935 84.9532 15.6652 84.4693 15.8608C83.9887 16.053 83.4335 16.1491 82.8038 16.1491ZM90.5048 16.1243C89.9248 16.1243 89.3994 15.9751 88.9288 15.6768C88.4615 15.3752 88.0903 14.9328 87.8152 14.3494C87.5434 13.7628 87.4075 13.0436 87.4075 12.1918C87.4075 11.3168 87.5484 10.5893 87.8301 10.0092C88.1118 9.4259 88.4863 8.99006 88.9537 8.7017C89.4243 8.41004 89.9397 8.2642 90.4998 8.2642C90.9274 8.2642 91.2837 8.33712 91.5687 8.48295C91.8571 8.62547 92.0891 8.80445 92.2647 9.01989C92.4437 9.23201 92.5796 9.44081 92.6724 9.64631H92.737V5.81818H94.85V16H92.7619V14.777H92.6724C92.573 14.9891 92.4321 15.1996 92.2498 15.4084C92.0708 15.6139 91.8372 15.7846 91.5488 15.9205C91.2638 16.0563 90.9158 16.1243 90.5048 16.1243ZM91.176 14.4389C91.5173 14.4389 91.8057 14.3461 92.041 14.1605C92.2797 13.9716 92.4619 13.7081 92.5879 13.37C92.7172 13.032 92.7818 12.6359 92.7818 12.1818C92.7818 11.7277 92.7188 11.3333 92.5929 10.9986C92.4669 10.6638 92.2846 10.4053 92.046 10.223C91.8074 10.0407 91.5173 9.94957 91.176 9.94957C90.8279 9.94957 90.5346 10.044 90.296 10.233C90.0574 10.4219 89.8767 10.6837 89.7541 11.0185C89.6315 11.3532 89.5701 11.741 89.5701 12.1818C89.5701 12.6259 89.6315 13.0187 89.7541 13.3601C89.88 13.6982 90.0607 13.9633 90.296 14.1555C90.5346 14.3445 90.8279 14.4389 91.176 14.4389ZM100.032 19.0227C99.3455 19.0227 98.7572 18.9283 98.2667 18.7393C97.7795 18.5537 97.3917 18.3002 97.1033 17.9787C96.815 17.6572 96.6277 17.2959 96.5415 16.8949L98.5004 16.6314C98.56 16.7839 98.6545 16.9264 98.7837 17.0589C98.913 17.1915 99.0837 17.2976 99.2958 17.3771C99.5112 17.46 99.7731 17.5014 100.081 17.5014C100.542 17.5014 100.922 17.3887 101.22 17.1634C101.521 16.9413 101.672 16.5684 101.672 16.0447V14.6477H101.583C101.49 14.8598 101.351 15.0604 101.165 15.2493C100.98 15.4382 100.741 15.5923 100.449 15.7116C100.158 15.831 99.8095 15.8906 99.4052 15.8906C98.8318 15.8906 98.3098 15.758 97.8391 15.4929C97.3718 15.2244 96.9989 14.8151 96.7205 14.2649C96.4454 13.7114 96.3079 13.0121 96.3079 12.1669C96.3079 11.3018 96.4487 10.5793 96.7305 9.99929C97.0122 9.41927 97.3867 8.98509 97.854 8.69673C98.3247 8.40838 98.8401 8.2642 99.4002 8.2642C99.8278 8.2642 100.186 8.33712 100.474 8.48295C100.762 8.62547 100.994 8.80445 101.17 9.01989C101.349 9.23201 101.487 9.44081 101.583 9.64631H101.662V8.36364H103.765V16.0746C103.765 16.7242 103.606 17.2678 103.288 17.7053C102.97 18.1428 102.529 18.4709 101.966 18.6896C101.405 18.9117 100.761 19.0227 100.032 19.0227ZM100.076 14.2997C100.418 14.2997 100.706 14.2152 100.941 14.0462C101.18 13.8738 101.362 13.6286 101.488 13.3104C101.618 12.9889 101.682 12.6044 101.682 12.157C101.682 11.7095 101.619 11.3217 101.493 10.9936C101.367 10.6622 101.185 10.4053 100.946 10.223C100.708 10.0407 100.418 9.94957 100.076 9.94957C99.7283 9.94957 99.435 10.044 99.1964 10.233C98.9577 10.4186 98.7771 10.6771 98.6545 11.0085C98.5318 11.34 98.4705 11.7228 98.4705 12.157C98.4705 12.5978 98.5318 12.9789 98.6545 13.3004C98.7804 13.6186 98.9611 13.8655 99.1964 14.0412C99.435 14.2135 99.7283 14.2997 100.076 14.2997ZM108.931 16.1491C108.145 16.1491 107.469 15.9901 106.902 15.6719C106.339 15.3504 105.905 14.8963 105.6 14.3097C105.295 13.7197 105.142 13.022 105.142 12.2166C105.142 11.4311 105.295 10.7417 105.6 10.1484C105.905 9.55516 106.334 9.0928 106.887 8.76136C107.444 8.42992 108.097 8.2642 108.846 8.2642C109.35 8.2642 109.819 8.34541 110.253 8.50781C110.691 8.6669 111.072 8.9072 111.397 9.22869C111.725 9.55019 111.98 9.95455 112.162 10.4418C112.345 10.9257 112.436 11.4924 112.436 12.142V12.7237H105.988V11.4112H110.442C110.442 11.1063 110.376 10.8362 110.243 10.6009C110.111 10.3655 109.927 10.1816 109.691 10.049C109.459 9.91312 109.189 9.84517 108.881 9.84517C108.56 9.84517 108.275 9.91974 108.026 10.0689C107.781 10.2147 107.588 10.4119 107.449 10.6605C107.31 10.9058 107.239 11.1792 107.235 11.4808V12.7287C107.235 13.1065 107.305 13.433 107.444 13.7081C107.587 13.9832 107.787 14.1953 108.046 14.3445C108.304 14.4936 108.611 14.5682 108.966 14.5682C109.201 14.5682 109.416 14.535 109.612 14.4688C109.807 14.4025 109.975 14.303 110.114 14.1705C110.253 14.0379 110.359 13.8755 110.432 13.6832L112.391 13.8125C112.292 14.2831 112.088 14.6941 111.779 15.0455C111.475 15.3935 111.08 15.6652 110.596 15.8608C110.116 16.053 109.56 16.1491 108.931 16.1491ZM114.325 16V5.81818H117.76C118.423 5.81818 118.975 5.93419 119.416 6.16619C119.86 6.3982 120.193 6.71473 120.415 7.11577C120.637 7.51681 120.748 7.97254 120.748 8.48295C120.748 8.9072 120.677 9.27012 120.534 9.57173C120.392 9.87334 120.198 10.117 119.953 10.3026C119.708 10.4882 119.434 10.6224 119.132 10.7053V10.7848C119.461 10.808 119.779 10.924 120.087 11.1328C120.395 11.3383 120.649 11.6267 120.848 11.9979C121.047 12.3691 121.146 12.8132 121.146 13.3303C121.146 13.844 121.032 14.303 120.803 14.7074C120.574 15.1084 120.223 15.425 119.749 15.657C119.278 15.8857 118.678 16 117.949 16H114.325ZM115.255 15.1648H117.949C118.735 15.1648 119.315 14.9908 119.689 14.6428C120.067 14.2947 120.256 13.8572 120.256 13.3303C120.256 12.9425 120.162 12.5911 119.973 12.2763C119.787 11.9581 119.524 11.7062 119.182 11.5206C118.844 11.335 118.446 11.2422 117.989 11.2422H115.255V15.1648ZM115.255 10.4169H117.845C118.246 10.4169 118.597 10.334 118.899 10.1683C119.2 10.0026 119.436 9.77391 119.605 9.48224C119.774 9.19058 119.858 8.85748 119.858 8.48295C119.858 7.94271 119.683 7.50355 119.331 7.16548C118.98 6.8241 118.456 6.65341 117.76 6.65341H115.255V10.4169ZM126.173 16.1591C125.514 16.1591 124.931 15.9917 124.423 15.657C123.92 15.3222 123.525 14.8598 123.24 14.2699C122.955 13.6766 122.813 12.9922 122.813 12.2166C122.813 11.4344 122.955 10.7467 123.24 10.1534C123.525 9.55682 123.92 9.0928 124.423 8.76136C124.931 8.42661 125.514 8.25923 126.173 8.25923C126.833 8.25923 127.415 8.42661 127.919 8.76136C128.422 9.09612 128.817 9.56013 129.102 10.1534C129.39 10.7467 129.534 11.4344 129.534 12.2166C129.534 12.9922 129.392 13.6766 129.107 14.2699C128.822 14.8598 128.426 15.3222 127.919 15.657C127.415 15.9917 126.833 16.1591 126.173 16.1591ZM126.173 15.3487C126.704 15.3487 127.153 15.2062 127.521 14.9212C127.889 14.6361 128.167 14.2566 128.356 13.7827C128.548 13.3087 128.644 12.7867 128.644 12.2166C128.644 11.6465 128.548 11.1229 128.356 10.6456C128.167 10.1683 127.889 9.78551 127.521 9.49716C127.153 9.20881 126.704 9.06463 126.173 9.06463C125.646 9.06463 125.197 9.20881 124.826 9.49716C124.458 9.78551 124.178 10.1683 123.986 10.6456C123.797 11.1229 123.703 11.6465 123.703 12.2166C123.703 12.7867 123.797 13.3087 123.986 13.7827C124.178 14.2566 124.458 14.6361 124.826 14.9212C125.194 15.2062 125.643 15.3487 126.173 15.3487ZM134.485 8.36364V9.13423H130.841V8.36364H134.485ZM131.979 6.53409H132.869V14.0064C132.869 14.3246 132.924 14.5748 133.033 14.7571C133.142 14.9361 133.285 15.0637 133.461 15.1399C133.636 15.2128 133.824 15.2493 134.022 15.2493C134.138 15.2493 134.238 15.2427 134.321 15.2294C134.404 15.2128 134.476 15.1963 134.539 15.1797L134.728 15.9801C134.642 16.0133 134.536 16.0431 134.41 16.0696C134.284 16.0994 134.128 16.1143 133.943 16.1143C133.618 16.1143 133.305 16.0431 133.003 15.9006C132.705 15.758 132.46 15.5459 132.267 15.2642C132.075 14.9825 131.979 14.6328 131.979 14.2152V6.53409Z" fill="#701236"/>
</svg>
