<svg width="117" height="20" viewBox="0 0 117 20" fill="none" xmlns="http://www.w3.org/2000/svg">
<path d="M12.4729 0.000442108C12.5921 0.000583853 12.7113 0.000365189 12.8306 0.000196609C13.0631 -7.5461e-05 13.2957 -1.94312e-05 13.5283 0.000160377C13.7176 0.000300583 13.9069 0.000318193 14.0962 0.000251435C14.1233 0.000241983 14.1504 0.000232531 14.1783 0.000222792C14.2334 0.000203067 14.2885 0.000183068 14.3436 0.000162799C14.8437 -7.47155e-06 15.3438 0.000168099 15.8439 0.000492355C16.2986 0.00078493 16.7533 0.000758866 17.208 0.000463919C17.721 0.000132234 18.2341 4.55469e-06 18.7471 0.000193263C18.802 0.000212909 18.8568 0.000232301 18.9117 0.000251435C18.9522 0.00026571 18.9522 0.00026571 18.9935 0.000280273C19.1822 0.00033316 19.3709 0.000244445 19.5596 9.8485e-05C19.7901 -7.59314e-05 20.0206 -2.47774e-05 20.2511 0.000300856C20.3684 0.000461101 20.4856 0.000529718 20.6028 0.000322498C21.3696 -0.000915013 22.1103 0.0373826 22.8617 0.19356C22.8846 0.198301 22.9076 0.203042 22.9312 0.207927C23.4198 0.311314 23.8999 0.469077 24.3645 0.645914C24.3791 0.65144 24.3936 0.656966 24.4086 0.66266C25.3214 1.01121 26.1447 1.5044 26.8979 2.10578C26.9173 2.12125 26.9173 2.12125 26.9371 2.13703C27.2651 2.39987 27.5869 2.67728 27.864 2.98993C27.8817 3.0096 27.8993 3.02926 27.9175 3.04953C28.0307 3.17612 28.1408 3.30463 28.2474 3.43643C28.3068 3.50976 28.3679 3.5814 28.4299 3.65272C28.5253 3.76411 28.6106 3.87979 28.6933 4.00002C28.7078 4.02109 28.7224 4.04216 28.7374 4.06387C28.957 4.38443 29.1732 4.71075 29.3428 5.05866C29.3722 5.11878 29.4023 5.17859 29.4323 5.23845C29.5765 5.52835 29.707 5.82063 29.8193 6.12343C29.8372 6.17175 29.8557 6.21988 29.8743 6.26797C30.2471 7.23795 30.2471 7.23795 30.2471 7.61628C30.264 7.6158 30.2809 7.61532 30.2983 7.61483C30.9847 7.60394 31.642 7.89719 32.1309 8.35005C32.2707 8.48446 32.3951 8.62785 32.5013 8.78829C32.5118 8.80374 32.5222 8.81919 32.533 8.83511C32.7592 9.18234 32.8952 9.53851 32.9737 9.93973C32.9774 9.9585 32.9811 9.97726 32.985 9.99659C33.0018 10.1067 32.9991 10.2167 32.9991 10.3278C32.9992 10.3695 32.9995 10.4112 33 10.4528C33.0012 10.7202 32.9736 10.9788 32.8851 11.2338C32.8786 11.253 32.872 11.2722 32.8653 11.2919C32.7342 11.664 32.5241 12.0217 32.2285 12.2968C32.1752 12.3425 32.1752 12.3425 32.1578 12.4071C32.0982 12.4604 32.0301 12.5045 31.9646 12.551C31.9405 12.569 31.9163 12.5869 31.8922 12.6049C31.4168 12.9552 30.8494 13.157 30.2471 13.1473C30.2404 13.1818 30.2404 13.1818 30.2336 13.217C30.1908 13.4326 30.1409 13.6462 30.0861 13.8593C30.08 13.8834 30.0739 13.9075 30.0676 13.9323C30.0355 14.0551 29.9986 14.1715 29.9473 14.2882C29.9227 14.3454 29.901 14.4032 29.8797 14.4616C29.7918 14.7018 29.701 14.9349 29.5815 15.1624C29.5677 15.1893 29.5539 15.2163 29.5401 15.2432C29.4068 15.5026 29.2685 15.7596 29.1092 16.0054C29.0927 16.0313 29.0761 16.0572 29.0596 16.0831C28.954 16.2476 28.8436 16.4059 28.7228 16.5605C28.6955 16.5969 28.6682 16.6334 28.6409 16.6698C28.4884 16.8701 28.3301 17.0639 28.1535 17.2453C28.1124 17.2881 28.0728 17.3313 28.0333 17.3754C27.9422 17.4755 27.8445 17.5693 27.7462 17.663C27.7151 17.6927 27.6842 17.7224 27.6532 17.7522C27.5411 17.8597 27.4267 17.9631 27.3058 18.0615C27.2813 18.082 27.2568 18.1025 27.2323 18.1231C26.1361 19.0353 24.7942 19.6282 23.371 19.881C23.3197 19.8902 23.2687 19.9 23.2176 19.9101C22.8243 19.9861 22.4327 20.0004 22.0324 19.9995C21.9825 19.9996 21.9327 19.9997 21.8828 19.9997C21.7469 19.9999 21.611 19.9998 21.4751 19.9997C21.3432 19.9996 21.2114 19.9997 21.0795 19.9998C20.7934 20 20.5074 20 20.2213 19.9999C19.971 19.9998 19.7207 19.9998 19.4704 19.9998C19.4537 19.9998 19.4371 19.9998 19.42 19.9998C19.3524 19.9999 19.2848 19.9999 19.2172 19.9999C18.5842 20 17.9512 19.9999 17.3182 19.9997C16.7564 19.9995 16.1947 19.9995 15.633 19.9997C15.001 19.9999 14.3689 20 13.7369 19.9999C13.6695 19.9999 13.6021 19.9998 13.5347 19.9998C13.5181 19.9998 13.5015 19.9998 13.4843 19.9998C13.2342 19.9998 12.9841 19.9998 12.734 19.9999C12.4495 20 12.165 20 11.8805 19.9998C11.7354 19.9997 11.5904 19.9996 11.4453 19.9998C11.3124 19.9999 11.1794 19.9998 11.0465 19.9996C10.9986 19.9996 10.9506 19.9996 10.9027 19.9997C10.6344 20.0002 10.3748 19.9902 10.109 19.9532C10.0799 19.9494 10.0507 19.9456 10.0216 19.9418C9.41837 19.8632 8.81722 19.7415 8.25157 19.5214C8.20255 19.5025 8.1533 19.4846 8.10376 19.467C7.22046 19.148 6.3526 18.6267 5.66223 18.0089C5.59386 17.9478 5.52514 17.8878 5.45434 17.8293C5.35649 17.7476 5.26419 17.6611 5.17247 17.5732C5.15547 17.5569 5.13846 17.5406 5.12095 17.5239C5.01549 17.4219 4.917 17.3186 4.82469 17.2054C4.78505 17.1573 4.74332 17.1121 4.70015 17.0669C3.98173 16.2988 3.47098 15.3446 3.11009 14.381C3.1034 14.3634 3.09671 14.3458 3.08982 14.3277C2.77963 13.5066 2.77963 13.5066 2.78805 13.1473C2.76699 13.148 2.74593 13.1488 2.72423 13.1495C2.20565 13.1617 1.63071 12.9903 1.22081 12.6744C1.20577 12.6474 1.19133 12.62 1.17787 12.5922C1.12512 12.5668 1.12512 12.5668 1.07052 12.551C1.05635 12.5443 1.04218 12.5375 1.02758 12.5305C1.02758 12.5169 1.02758 12.5033 1.02758 12.4894C1.00982 12.4823 1.00982 12.4823 0.99169 12.4751C0.678983 12.3068 0.488787 11.934 0.319102 11.6463C0.302787 11.6194 0.302787 11.6194 0.286143 11.592C-0.0430092 11.0132 -0.071036 10.2256 0.114642 9.60223C0.359735 8.83687 0.868188 8.24569 1.60322 7.86591C1.9537 7.69096 2.36973 7.58741 2.76658 7.61628C2.77154 7.59457 2.77649 7.57286 2.7816 7.5505C2.80068 7.46726 2.82008 7.3841 2.83961 7.30096C2.848 7.26517 2.85635 7.22936 2.86464 7.19355C2.92628 6.92851 3.003 6.67084 3.09236 6.41317C3.10863 6.36625 3.12463 6.31926 3.14053 6.27223C3.18302 6.14727 3.22758 6.02368 3.28 5.9022C3.3032 5.84824 3.32538 5.79394 3.34753 5.73958C3.75692 4.74208 4.3925 3.79765 5.14966 3.01049C5.18505 2.97328 5.22039 2.93601 5.25566 2.89869C5.27135 2.88218 5.28705 2.86566 5.30321 2.84865C5.34574 2.80358 5.34574 2.80358 5.38582 2.74319C5.39999 2.74319 5.41416 2.74319 5.42876 2.74319C5.43438 2.73104 5.44 2.7189 5.44579 2.70638C5.47314 2.65841 5.50113 2.62911 5.54273 2.59195C5.56395 2.5729 5.56395 2.5729 5.58559 2.55346C5.6007 2.54016 5.61581 2.52686 5.63137 2.51316C5.64692 2.49934 5.66247 2.48552 5.67849 2.47129C5.78008 2.38167 5.88393 2.29583 5.99199 2.21341C6.04923 2.16912 6.10494 2.12353 6.16051 2.07734C6.73526 1.5998 7.39002 1.2176 8.06946 0.892652C8.08671 0.884313 8.10395 0.875974 8.12172 0.867382C8.41784 0.724895 8.72453 0.610895 9.03557 0.501983C9.05431 0.49536 9.07305 0.488737 9.09236 0.481913C10.1869 0.0993936 11.3167 -0.0015991 12.4729 0.000442108Z" fill="#433BD9"/>
<path d="M11.8689 4.60384C12.0067 4.60407 12.1445 4.60382 12.2824 4.60364C12.536 4.60335 12.7896 4.60347 13.0432 4.60376C13.2775 4.60403 13.5118 4.60414 13.7461 4.60409C13.7696 4.60408 13.7696 4.60408 13.7935 4.60408C13.8569 4.60406 13.9204 4.60405 13.9838 4.60403C14.5772 4.60389 15.1705 4.6042 15.7639 4.60474C16.2898 4.60522 16.8157 4.60533 17.3415 4.60512C17.4764 4.60507 17.6112 4.60501 17.746 4.60496C17.7626 4.60496 17.7792 4.60495 17.7963 4.60495C18.2373 4.60479 18.6783 4.60492 19.1193 4.60514C19.1668 4.60517 19.2143 4.60519 19.2618 4.60521C19.2933 4.60523 19.3248 4.60524 19.3563 4.60526C19.5905 4.60538 19.8246 4.60535 20.0587 4.60526C20.3251 4.60515 20.5915 4.60528 20.8579 4.60569C20.9936 4.60589 21.1293 4.60599 21.2649 4.60583C21.3895 4.60568 21.514 4.60583 21.6386 4.60619C21.6833 4.60628 21.728 4.60626 21.7727 4.60612C22.2479 4.60479 22.7033 4.66109 23.1623 4.77878C23.1884 4.78533 23.2144 4.79188 23.2413 4.79862C23.5836 4.8885 23.9194 4.99378 24.2357 5.14889C24.2501 5.15583 24.2645 5.16277 24.2793 5.16992C24.6396 5.3446 24.9693 5.54872 25.2877 5.7863C25.3188 5.80904 25.3188 5.80904 25.3505 5.83224C25.5167 5.95754 25.6632 6.10108 25.811 6.24561C25.8699 6.30316 25.9291 6.36038 25.9898 6.41616C26.1026 6.5203 26.1996 6.63524 26.2968 6.75269C26.3141 6.77352 26.3314 6.79436 26.3493 6.81582C26.7803 7.33951 27.1339 7.94001 27.3273 8.58267C27.337 8.61398 27.337 8.61398 27.3468 8.64592C27.4489 8.97829 27.5349 9.30859 27.5849 9.65187C27.5887 9.67613 27.5925 9.7004 27.5964 9.7254C27.6272 9.93753 27.6356 10.1459 27.6346 10.36C27.6345 10.3769 27.6345 10.3939 27.6345 10.4113C27.6332 10.8018 27.6025 11.1832 27.4906 11.5602C27.4753 11.6131 27.4612 11.6663 27.4472 11.7195C27.3141 12.2241 27.1364 12.6998 26.855 13.1473C26.8378 13.1771 26.8207 13.2069 26.8037 13.2367C26.099 14.4571 24.8286 15.3756 23.4481 15.7831C23.3067 15.8193 23.1635 15.8469 23.02 15.8743C22.9982 15.8786 22.9763 15.8828 22.9538 15.8872C22.8804 15.9006 22.8068 15.9121 22.7329 15.9231C22.6939 15.929 22.6939 15.929 22.6541 15.935C22.2946 15.9815 21.9319 15.9619 21.5704 15.9525C21.3735 15.9474 21.1766 15.9431 20.9797 15.9388C20.9329 15.9378 20.8861 15.9367 20.8392 15.9357C20.4702 15.9275 20.1012 15.9212 19.7322 15.9165C19.7071 15.9162 19.6819 15.9159 19.6561 15.9155C19.3965 15.9122 19.1369 15.9092 18.8774 15.9063C18.7443 15.9048 18.6112 15.9032 18.4781 15.9016C18.4384 15.9011 18.4384 15.9011 18.3979 15.9006C17.9713 15.8954 17.5449 15.8854 17.1184 15.8738C16.6779 15.8618 16.2375 15.8552 15.7968 15.8533C15.5503 15.8521 15.3044 15.8485 15.0581 15.8388C13.8099 15.7853 13.8099 15.7853 12.7466 16.3395C12.4201 16.6288 12.0067 16.9968 11.8051 17.383C11.7909 17.383 11.7768 17.383 11.7622 17.383C11.7622 17.3966 11.7622 17.4102 11.7622 17.4241C11.7318 17.4528 11.7318 17.4528 11.6891 17.4865C11.5824 17.5735 11.4839 17.6671 11.3851 17.7621C11.359 17.787 11.359 17.787 11.3323 17.8124C11.2412 17.8999 11.1539 17.9889 11.0698 18.0825C11.0009 18.1572 10.9273 18.2275 10.8538 18.298C10.8307 18.3204 10.8307 18.3204 10.8073 18.3433C10.7926 18.3574 10.7779 18.3715 10.7628 18.386C10.7496 18.3988 10.7363 18.4115 10.7227 18.4246C10.6887 18.4522 10.6887 18.4522 10.6458 18.4522C10.6458 17.6244 10.6458 16.7966 10.6458 15.9437C10.5608 15.9437 10.4757 15.9437 10.3881 15.9437C10.3039 15.9324 10.3039 15.9324 10.2311 15.9167C10.2039 15.911 10.1767 15.9053 10.1487 15.8994C10.1214 15.8937 10.0942 15.8879 10.0661 15.882C10.0133 15.8726 9.96056 15.8631 9.90777 15.8537C9.60753 15.7959 9.31939 15.7033 9.03558 15.5942C8.99611 15.5791 8.99611 15.5791 8.95583 15.5637C8.77426 15.4921 8.60081 15.4066 8.42774 15.3179C8.40648 15.3071 8.38523 15.2963 8.36333 15.2851C8.21317 15.2069 8.07715 15.1167 7.94066 15.0184C7.90135 14.9914 7.862 14.9644 7.82258 14.9375C7.65665 14.8217 7.4967 14.701 7.35395 14.5594C7.31535 14.5224 7.27497 14.4884 7.23352 14.4543C7.08464 14.331 6.95154 14.1956 6.82426 14.052C6.80865 14.0348 6.79305 14.0176 6.77696 13.9998C6.50158 13.691 6.27366 13.3609 6.07284 13.0034C6.06527 12.9899 6.05769 12.9765 6.04989 12.9626C5.87851 12.6547 5.74251 12.3314 5.64346 11.9959C5.63762 11.9766 5.63178 11.9574 5.62576 11.9375C5.24633 10.6805 5.30672 9.29147 5.87962 8.08919C5.89273 8.06131 5.89273 8.06131 5.9061 8.03287C6.04708 7.7353 6.20223 7.45429 6.39488 7.18448C6.40434 7.17122 6.41381 7.15796 6.42356 7.1443C6.47571 7.07186 6.52916 7.00046 6.5839 6.92979C6.60925 6.89704 6.63428 6.86406 6.6593 6.83108C6.80705 6.64086 6.97399 6.47026 7.1463 6.30034C7.1602 6.28658 7.17409 6.27282 7.18841 6.25864C7.3521 6.09716 7.51746 5.94377 7.7045 5.80686C7.71736 5.7973 7.73023 5.78774 7.74348 5.77789C8.36324 5.31776 9.07229 4.97599 9.8286 4.7775C9.85239 4.77081 9.87617 4.76411 9.90068 4.75722C10.544 4.58876 11.208 4.60229 11.8689 4.60384Z" fill="#FDFDFC"/>
<path d="M21.5521 7.53404C21.5747 7.54274 21.5973 7.55143 21.6206 7.56039C21.9938 7.72071 22.3021 8.05232 22.4481 8.41648C22.5897 8.82054 22.55 9.25102 22.3652 9.63261C22.2031 9.92854 21.9871 10.148 21.6809 10.3099C21.6641 10.3192 21.6473 10.3286 21.6301 10.3382C21.3287 10.4967 20.9125 10.5319 20.5783 10.4563C20.499 10.4324 20.4253 10.4048 20.3498 10.3715C20.3254 10.3609 20.3009 10.3502 20.2757 10.3392C20.1132 10.2616 19.9843 10.1649 19.856 10.0426C19.8434 10.0314 19.8309 10.0203 19.8179 10.0088C19.7916 9.98087 19.7916 9.98087 19.7916 9.93974C19.7774 9.93974 19.7633 9.93974 19.7487 9.93974C19.7156 9.89927 19.6863 9.85947 19.6574 9.81637C19.6489 9.80364 19.6403 9.79091 19.6315 9.77779C19.462 9.51558 19.4011 9.25661 19.3998 8.9515C19.3993 8.92533 19.3989 8.89916 19.3985 8.87219C19.3967 8.4616 19.5808 8.11554 19.8721 7.81805C20.3167 7.41534 20.9904 7.31055 21.5521 7.53404Z" fill="#433BD9"/>
<path d="M13.0018 7.72183C13.0579 7.76627 13.1088 7.81122 13.1576 7.86303C13.17 7.87485 13.1825 7.88667 13.1953 7.89885C13.5019 8.20345 13.6384 8.59514 13.6346 9.01359C13.6175 9.43529 13.4179 9.78766 13.1147 10.0837C13.1015 10.0968 13.0883 10.1099 13.0748 10.1234C12.7674 10.4058 12.3437 10.4849 11.9356 10.48C11.569 10.4691 11.2455 10.3085 10.9892 10.0631C10.9761 10.0522 10.963 10.0414 10.9495 10.0302C10.7667 9.87434 10.6318 9.6266 10.5599 9.40515C10.5535 9.38617 10.5471 9.36719 10.5406 9.34764C10.4196 8.92878 10.4981 8.52135 10.7168 8.14832C10.9338 7.80626 11.2305 7.58845 11.6284 7.46296C12.1039 7.35209 12.6144 7.43516 13.0018 7.72183Z" fill="#433BD9"/>
<path d="M15.1101 12.1958C15.1484 12.1955 15.1484 12.1955 15.1875 12.1952C15.2154 12.1952 15.2432 12.1952 15.2719 12.1952C15.3017 12.195 15.3315 12.1949 15.3612 12.1947C15.442 12.1942 15.5227 12.194 15.6034 12.1939C15.6539 12.1939 15.7044 12.1937 15.7549 12.1936C15.9312 12.1931 16.1075 12.1928 16.2838 12.1927C16.4479 12.1927 16.612 12.192 16.776 12.1912C16.9171 12.1905 17.0582 12.1901 17.1993 12.1901C17.2834 12.1901 17.3676 12.1899 17.4518 12.1894C17.531 12.1888 17.6102 12.1888 17.6894 12.1891C17.7321 12.1892 17.7749 12.1887 17.8176 12.1882C17.9706 12.1894 18.088 12.2004 18.203 12.3043C18.2703 12.4171 18.2641 12.5752 18.2352 12.7002C18.2192 12.7473 18.2006 12.7929 18.1815 12.8389C18.174 12.8601 18.1664 12.8814 18.1586 12.9033C18.1023 13.0568 18.0362 13.1701 17.9239 13.2912C17.9081 13.3102 17.8923 13.3292 17.8761 13.3488C17.6178 13.6443 17.2237 13.8697 16.8223 13.9229C16.2299 13.9661 15.7887 13.8578 15.3119 13.5178C15.0752 13.3221 14.8196 12.9575 14.7847 12.6542C14.7821 12.609 14.7814 12.5641 14.7813 12.5189C14.7808 12.5036 14.7803 12.4884 14.7797 12.4727C14.7793 12.3951 14.7841 12.354 14.8261 12.2857C14.9131 12.2094 14.9945 12.1963 15.1101 12.1958Z" fill="#433BD9"/>
<path d="M45.4013 5.81818V16H43.5419L39.1122 9.59162H39.0376V16H36.8849V5.81818H38.7741L43.169 12.2216H43.2585V5.81818H45.4013ZM50.6202 16.1491C49.8347 16.1491 49.1586 15.9901 48.5918 15.6719C48.0283 15.3504 47.5942 14.8963 47.2892 14.3097C46.9843 13.7197 46.8319 13.022 46.8319 12.2166C46.8319 11.4311 46.9843 10.7417 47.2892 10.1484C47.5942 9.55516 48.0234 9.0928 48.5769 8.76136C49.1337 8.42992 49.7866 8.2642 50.5357 8.2642C51.0395 8.2642 51.5085 8.34541 51.9426 8.50781C52.3801 8.6669 52.7613 8.9072 53.0861 9.22869C53.4142 9.55019 53.6694 9.95455 53.8517 10.4418C54.034 10.9257 54.1252 11.4924 54.1252 12.142V12.7237H47.677V11.4112H52.1316C52.1316 11.1063 52.0653 10.8362 51.9327 10.6009C51.8001 10.3655 51.6162 10.1816 51.3809 10.049C51.1489 9.91312 50.8787 9.84517 50.5705 9.84517C50.249 9.84517 49.964 9.91974 49.7154 10.0689C49.4701 10.2147 49.2779 10.4119 49.1387 10.6605C48.9995 10.9058 48.9282 11.1792 48.9249 11.4808V12.7287C48.9249 13.1065 48.9945 13.433 49.1337 13.7081C49.2762 13.9832 49.4767 14.1953 49.7353 14.3445C49.9938 14.4936 50.3004 14.5682 50.655 14.5682C50.8903 14.5682 51.1058 14.535 51.3013 14.4688C51.4969 14.4025 51.6642 14.303 51.8034 14.1705C51.9426 14.0379 52.0487 13.8755 52.1216 13.6832L54.0804 13.8125C53.981 14.2831 53.7772 14.6941 53.4689 15.0455C53.164 15.3935 52.7696 15.6652 52.2857 15.8608C51.8051 16.053 51.2499 16.1491 50.6202 16.1491ZM58.9874 16.1491C58.2019 16.1491 57.5257 15.9901 56.959 15.6719C56.3955 15.3504 55.9614 14.8963 55.6564 14.3097C55.3515 13.7197 55.199 13.022 55.199 12.2166C55.199 11.4311 55.3515 10.7417 55.6564 10.1484C55.9614 9.55516 56.3906 9.0928 56.9441 8.76136C57.5009 8.42992 58.1538 8.2642 58.9029 8.2642C59.4067 8.2642 59.8757 8.34541 60.3098 8.50781C60.7473 8.6669 61.1285 8.9072 61.4533 9.22869C61.7814 9.55019 62.0366 9.95455 62.2189 10.4418C62.4012 10.9257 62.4924 11.4924 62.4924 12.142V12.7237H56.0442V11.4112H60.4988C60.4988 11.1063 60.4325 10.8362 60.2999 10.6009C60.1673 10.3655 59.9834 10.1816 59.748 10.049C59.516 9.91312 59.2459 9.84517 58.9377 9.84517C58.6162 9.84517 58.3311 9.91974 58.0826 10.0689C57.8373 10.2147 57.6451 10.4119 57.5059 10.6605C57.3667 10.9058 57.2954 11.1792 57.2921 11.4808V12.7287C57.2921 13.1065 57.3617 13.433 57.5009 13.7081C57.6434 13.9832 57.8439 14.1953 58.1025 14.3445C58.361 14.4936 58.6676 14.5682 59.0222 14.5682C59.2575 14.5682 59.473 14.535 59.6685 14.4688C59.8641 14.4025 60.0314 14.303 60.1706 14.1705C60.3098 14.0379 60.4159 13.8755 60.4888 13.6832L62.4476 13.8125C62.3482 14.2831 62.1444 14.6941 61.8361 15.0455C61.5312 15.3935 61.1368 15.6652 60.6529 15.8608C60.1723 16.053 59.6171 16.1491 58.9874 16.1491ZM66.6884 16.1243C66.1084 16.1243 65.583 15.9751 65.1124 15.6768C64.6451 15.3752 64.2739 14.9328 63.9988 14.3494C63.727 13.7628 63.5911 13.0436 63.5911 12.1918C63.5911 11.3168 63.7319 10.5893 64.0137 10.0092C64.2954 9.4259 64.6699 8.99006 65.1373 8.7017C65.6079 8.41004 66.1233 8.2642 66.6834 8.2642C67.111 8.2642 67.4673 8.33712 67.7523 8.48295C68.0407 8.62547 68.2727 8.80445 68.4483 9.01989C68.6273 9.23201 68.7632 9.44081 68.856 9.64631H68.9206V5.81818H71.0336V16H68.9455V14.777H68.856C68.7566 14.9891 68.6157 15.1996 68.4334 15.4084C68.2544 15.6139 68.0208 15.7846 67.7324 15.9205C67.4474 16.0563 67.0994 16.1243 66.6884 16.1243ZM67.3596 14.4389C67.7009 14.4389 67.9893 14.3461 68.2246 14.1605C68.4632 13.9716 68.6455 13.7081 68.7715 13.37C68.9007 13.032 68.9654 12.6359 68.9654 12.1818C68.9654 11.7277 68.9024 11.3333 68.7765 10.9986C68.6505 10.6638 68.4682 10.4053 68.2296 10.223C67.9909 10.0407 67.7009 9.94957 67.3596 9.94957C67.0115 9.94957 66.7182 10.044 66.4796 10.233C66.2409 10.4219 66.0603 10.6837 65.9377 11.0185C65.815 11.3532 65.7537 11.741 65.7537 12.1818C65.7537 12.6259 65.815 13.0187 65.9377 13.3601C66.0636 13.6982 66.2443 13.9633 66.4796 14.1555C66.7182 14.3445 67.0115 14.4389 67.3596 14.4389ZM79.1286 10.5412L77.1896 10.6605C77.1565 10.4948 77.0852 10.3456 76.9759 10.2131C76.8665 10.0772 76.7223 9.96946 76.5433 9.88991C76.3677 9.80705 76.1572 9.76562 75.9119 9.76562C75.5838 9.76562 75.3071 9.83523 75.0817 9.97443C74.8563 10.1103 74.7436 10.2926 74.7436 10.5213C74.7436 10.7036 74.8165 10.8577 74.9624 10.9837C75.1082 11.1096 75.3584 11.2107 75.7131 11.2869L77.0952 11.5653C77.8376 11.7178 78.3911 11.9631 78.7557 12.3011C79.1203 12.6392 79.3026 13.0833 79.3026 13.6335C79.3026 14.134 79.1551 14.5732 78.8601 14.951C78.5684 15.3288 78.1674 15.6238 77.657 15.8359C77.1499 16.0447 76.5649 16.1491 75.902 16.1491C74.8911 16.1491 74.0857 15.9387 73.4858 15.5178C72.8892 15.0935 72.5395 14.5168 72.4368 13.7876L74.5199 13.6783C74.5829 13.9865 74.7353 14.2218 74.9773 14.3842C75.2192 14.5433 75.5291 14.6229 75.907 14.6229C76.2782 14.6229 76.5765 14.5516 76.8018 14.4091C77.0305 14.2633 77.1465 14.076 77.1499 13.8473C77.1465 13.6551 77.0653 13.4976 76.9062 13.375C76.7472 13.2491 76.5019 13.1529 76.1705 13.0866L74.848 12.8232C74.1023 12.674 73.5471 12.4155 73.1825 12.0476C72.8213 11.6797 72.6406 11.2107 72.6406 10.6406C72.6406 10.1501 72.7732 9.72751 73.0384 9.37287C73.3068 9.01823 73.683 8.74479 74.1669 8.55256C74.6541 8.36032 75.2242 8.2642 75.8771 8.2642C76.8416 8.2642 77.6006 8.46804 78.1541 8.87571C78.7109 9.28338 79.0357 9.83854 79.1286 10.5412ZM81.1433 16V5.81818H84.5787C85.2415 5.81818 85.7934 5.93419 86.2342 6.16619C86.6783 6.3982 87.0114 6.71473 87.2335 7.11577C87.4556 7.51681 87.5666 7.97254 87.5666 8.48295C87.5666 8.9072 87.4953 9.27012 87.3528 9.57173C87.2103 9.87334 87.0164 10.117 86.7711 10.3026C86.5259 10.4882 86.2524 10.6224 85.9508 10.7053V10.7848C86.2789 10.808 86.5971 10.924 86.9054 11.1328C87.2136 11.3383 87.4672 11.6267 87.666 11.9979C87.8649 12.3691 87.9643 12.8132 87.9643 13.3303C87.9643 13.844 87.85 14.303 87.6213 14.7074C87.3926 15.1084 87.0413 15.425 86.5673 15.657C86.0967 15.8857 85.4967 16 84.7676 16H81.1433ZM82.073 15.1648H84.7676C85.5531 15.1648 86.1331 14.9908 86.5076 14.6428C86.8855 14.2947 87.0744 13.8572 87.0744 13.3303C87.0744 12.9425 86.9799 12.5911 86.791 12.2763C86.6054 11.9581 86.3419 11.7062 86.0005 11.5206C85.6625 11.335 85.2647 11.2422 84.8074 11.2422H82.073V15.1648ZM82.073 10.4169H84.6632C85.0642 10.4169 85.4155 10.334 85.7172 10.1683C86.0188 10.0026 86.2541 9.77391 86.4231 9.48224C86.5922 9.19058 86.6767 8.85748 86.6767 8.48295C86.6767 7.94271 86.501 7.50355 86.1497 7.16548C85.7984 6.8241 85.2747 6.65341 84.5787 6.65341H82.073V10.4169ZM92.9918 16.1591C92.3323 16.1591 91.7489 15.9917 91.2418 15.657C90.738 15.3222 90.3436 14.8598 90.0586 14.2699C89.7736 13.6766 89.631 12.9922 89.631 12.2166C89.631 11.4344 89.7736 10.7467 90.0586 10.1534C90.3436 9.55682 90.738 9.0928 91.2418 8.76136C91.7489 8.42661 92.3323 8.25923 92.9918 8.25923C93.6514 8.25923 94.2331 8.42661 94.7369 8.76136C95.2406 9.09612 95.6351 9.56013 95.9201 10.1534C96.2085 10.7467 96.3526 11.4344 96.3526 12.2166C96.3526 12.9922 96.2101 13.6766 95.9251 14.2699C95.64 14.8598 95.244 15.3222 94.7369 15.657C94.2331 15.9917 93.6514 16.1591 92.9918 16.1591ZM92.9918 15.3487C93.5221 15.3487 93.9712 15.2062 94.3391 14.9212C94.707 14.6361 94.9854 14.2566 95.1744 13.7827C95.3666 13.3087 95.4627 12.7867 95.4627 12.2166C95.4627 11.6465 95.3666 11.1229 95.1744 10.6456C94.9854 10.1683 94.707 9.78551 94.3391 9.49716C93.9712 9.20881 93.5221 9.06463 92.9918 9.06463C92.4648 9.06463 92.0157 9.20881 91.6445 9.49716C91.2766 9.78551 90.9966 10.1683 90.8043 10.6456C90.6154 11.1229 90.521 11.6465 90.521 12.2166C90.521 12.7867 90.6154 13.3087 90.8043 13.7827C90.9966 14.2566 91.2766 14.6361 91.6445 14.9212C92.0124 15.2062 92.4615 15.3487 92.9918 15.3487ZM101.303 8.36364V9.13423H97.6589V8.36364H101.303ZM98.7974 6.53409H99.6873V14.0064C99.6873 14.3246 99.742 14.5748 99.8514 14.7571C99.9608 14.9361 100.103 15.0637 100.279 15.1399C100.455 15.2128 100.642 15.2493 100.841 15.2493C100.957 15.2493 101.056 15.2427 101.139 15.2294C101.222 15.2128 101.295 15.1963 101.358 15.1797L101.547 15.9801C101.461 16.0133 101.354 16.0431 101.229 16.0696C101.103 16.0994 100.947 16.1143 100.761 16.1143C100.436 16.1143 100.123 16.0431 99.8216 15.9006C99.5233 15.758 99.278 15.5459 99.0858 15.2642C98.8935 14.9825 98.7974 14.6328 98.7974 14.2152V6.53409Z" fill="#433BD9"/>
</svg>
