<svg width="21" height="31" viewBox="0 0 21 31" fill="none" xmlns="http://www.w3.org/2000/svg">
<rect x="0.5" y="0.5" width="20" height="30" rx="1.5" stroke="#006EFF"/>
<path d="M10.9424 7.7666L13.4424 12.4932L13.8301 13.2275H11.9092V16.5H9.09082V13.2275H7.16992L7.55762 12.4932L10.0576 7.7666L10.5 6.93066L10.9424 7.7666Z" stroke="#006EFF"/>
<path d="M5.31534 19.9943V19.6364H8.4794V19.9943H7.09659V24H6.69815V19.9943H5.31534ZM10.095 24.0682C9.81232 24.0682 9.56232 23.9964 9.34499 23.853C9.12908 23.7095 8.96005 23.5114 8.83789 23.2585C8.71573 23.0043 8.65465 22.7109 8.65465 22.3786C8.65465 22.0433 8.71573 21.7486 8.83789 21.4943C8.96005 21.2386 9.12908 21.0398 9.34499 20.8977C9.56232 20.7543 9.81232 20.6825 10.095 20.6825C10.3777 20.6825 10.627 20.7543 10.8429 20.8977C11.0588 21.0412 11.2278 21.2401 11.35 21.4943C11.4735 21.7486 11.5353 22.0433 11.5353 22.3786C11.5353 22.7109 11.4743 23.0043 11.3521 23.2585C11.2299 23.5114 11.0602 23.7095 10.8429 23.853C10.627 23.9964 10.3777 24.0682 10.095 24.0682ZM10.095 23.7209C10.3223 23.7209 10.5147 23.6598 10.6724 23.5376C10.8301 23.4155 10.9494 23.2528 11.0304 23.0497C11.1127 22.8466 11.1539 22.6229 11.1539 22.3786C11.1539 22.1342 11.1127 21.9098 11.0304 21.7053C10.9494 21.5007 10.8301 21.3366 10.6724 21.2131C10.5147 21.0895 10.3223 21.0277 10.095 21.0277C9.86914 21.0277 9.67667 21.0895 9.51758 21.2131C9.35991 21.3366 9.23988 21.5007 9.15749 21.7053C9.07653 21.9098 9.03604 22.1342 9.03604 22.3786C9.03604 22.6229 9.07653 22.8466 9.15749 23.0497C9.23988 23.2528 9.35991 23.4155 9.51758 23.5376C9.67525 23.6598 9.86772 23.7209 10.095 23.7209ZM12.3679 25.2273V20.7273H12.7365V21.3516H12.7812C12.8267 21.2536 12.8892 21.1534 12.9688 21.0511C13.0483 20.9474 13.1534 20.8601 13.2841 20.7891C13.4162 20.718 13.5824 20.6825 13.7827 20.6825C14.0526 20.6825 14.2884 20.7536 14.4901 20.8956C14.6932 21.0362 14.8509 21.2337 14.9631 21.4879C15.0767 21.7408 15.1335 22.0355 15.1335 22.3722C15.1335 22.7102 15.0767 23.0064 14.9631 23.2607C14.8509 23.5149 14.6932 23.7131 14.4901 23.8551C14.2884 23.9972 14.054 24.0682 13.7869 24.0682C13.5895 24.0682 13.424 24.0327 13.2905 23.9616C13.1584 23.8906 13.0511 23.8033 12.9688 23.6996C12.8878 23.5945 12.8253 23.4922 12.7812 23.3928H12.7472V25.2273H12.3679ZM12.7429 22.3658C12.7429 22.63 12.782 22.8643 12.8601 23.0689C12.9396 23.272 13.0533 23.4318 13.201 23.5483C13.3501 23.6634 13.5305 23.7209 13.7422 23.7209C13.9595 23.7209 14.1428 23.6612 14.2919 23.5419C14.4425 23.4212 14.5568 23.2585 14.6349 23.054C14.7145 22.8494 14.7543 22.62 14.7543 22.3658C14.7543 22.1143 14.7152 21.8878 14.6371 21.6861C14.5604 21.4844 14.4467 21.3246 14.2962 21.2067C14.1456 21.0874 13.9609 21.0277 13.7422 21.0277C13.5291 21.0277 13.348 21.0852 13.1989 21.2003C13.0497 21.3139 12.9361 21.4716 12.858 21.6733C12.7812 21.8736 12.7429 22.1044 12.7429 22.3658Z" fill="#006EFF"/>
</svg>
