<svg width="117" height="20" viewBox="0 0 117 20" fill="none" xmlns="http://www.w3.org/2000/svg">
<path d="M12.4729 0.000442108C12.5921 0.000583853 12.7113 0.000365189 12.8306 0.000196609C13.0631 -7.5461e-05 13.2957 -1.94312e-05 13.5283 0.000160377C13.7176 0.000300583 13.9069 0.000318193 14.0962 0.000251435C14.1233 0.000241983 14.1504 0.000232531 14.1783 0.000222792C14.2334 0.000203067 14.2885 0.000183068 14.3436 0.000162799C14.8437 -7.47155e-06 15.3438 0.000168099 15.8439 0.000492355C16.2986 0.00078493 16.7533 0.000758866 17.208 0.000463919C17.721 0.000132234 18.2341 4.55469e-06 18.7471 0.000193263C18.802 0.000212909 18.8568 0.000232301 18.9117 0.000251435C18.9522 0.00026571 18.9522 0.00026571 18.9935 0.000280273C19.1822 0.00033316 19.3709 0.000244445 19.5596 9.8485e-05C19.7901 -7.59314e-05 20.0206 -2.47774e-05 20.2511 0.000300856C20.3684 0.000461101 20.4856 0.000529718 20.6028 0.000322498C21.3696 -0.000915013 22.1103 0.0373826 22.8617 0.19356C22.8846 0.198301 22.9076 0.203042 22.9312 0.207927C23.4198 0.311314 23.8999 0.469077 24.3645 0.645914C24.3791 0.65144 24.3936 0.656966 24.4086 0.66266C25.3214 1.01121 26.1447 1.5044 26.8979 2.10578C26.9173 2.12125 26.9173 2.12125 26.9371 2.13703C27.2651 2.39987 27.5869 2.67728 27.864 2.98993C27.8817 3.0096 27.8993 3.02926 27.9175 3.04953C28.0307 3.17612 28.1408 3.30463 28.2474 3.43643C28.3068 3.50976 28.3679 3.5814 28.4299 3.65272C28.5253 3.76411 28.6106 3.87979 28.6933 4.00002C28.7078 4.02109 28.7224 4.04216 28.7374 4.06387C28.957 4.38443 29.1732 4.71075 29.3428 5.05866C29.3722 5.11878 29.4023 5.17859 29.4323 5.23845C29.5765 5.52835 29.707 5.82063 29.8193 6.12343C29.8372 6.17175 29.8557 6.21988 29.8743 6.26797C30.2471 7.23795 30.2471 7.23795 30.2471 7.61628C30.264 7.6158 30.2809 7.61532 30.2983 7.61483C30.9847 7.60394 31.642 7.89719 32.1309 8.35005C32.2707 8.48446 32.3951 8.62785 32.5013 8.78829C32.5118 8.80374 32.5222 8.81919 32.533 8.83511C32.7592 9.18234 32.8952 9.53851 32.9737 9.93973C32.9774 9.9585 32.9811 9.97726 32.985 9.99659C33.0018 10.1067 32.9991 10.2167 32.9991 10.3278C32.9992 10.3695 32.9995 10.4112 33 10.4528C33.0012 10.7202 32.9736 10.9788 32.8851 11.2338C32.8786 11.253 32.872 11.2722 32.8653 11.2919C32.7342 11.664 32.5241 12.0217 32.2285 12.2968C32.1752 12.3425 32.1752 12.3425 32.1578 12.4071C32.0982 12.4604 32.0301 12.5045 31.9646 12.551C31.9405 12.569 31.9163 12.5869 31.8922 12.6049C31.4168 12.9552 30.8494 13.157 30.2471 13.1473C30.2404 13.1818 30.2404 13.1818 30.2336 13.217C30.1908 13.4326 30.1409 13.6462 30.0861 13.8593C30.08 13.8834 30.0739 13.9075 30.0676 13.9323C30.0355 14.0551 29.9986 14.1715 29.9473 14.2882C29.9227 14.3454 29.901 14.4032 29.8797 14.4616C29.7918 14.7018 29.701 14.9349 29.5815 15.1624C29.5677 15.1893 29.5539 15.2163 29.5401 15.2432C29.4068 15.5026 29.2685 15.7596 29.1092 16.0054C29.0927 16.0313 29.0761 16.0572 29.0596 16.0831C28.954 16.2476 28.8436 16.4059 28.7228 16.5605C28.6955 16.5969 28.6682 16.6334 28.6409 16.6698C28.4884 16.8701 28.3301 17.0639 28.1535 17.2453C28.1124 17.2881 28.0728 17.3313 28.0333 17.3754C27.9422 17.4755 27.8445 17.5693 27.7462 17.663C27.7151 17.6927 27.6842 17.7224 27.6532 17.7522C27.5411 17.8597 27.4267 17.9631 27.3058 18.0615C27.2813 18.082 27.2568 18.1025 27.2323 18.1231C26.1361 19.0353 24.7942 19.6282 23.371 19.881C23.3197 19.8902 23.2687 19.9 23.2176 19.9101C22.8243 19.9861 22.4327 20.0004 22.0324 19.9995C21.9825 19.9996 21.9327 19.9997 21.8828 19.9997C21.7469 19.9999 21.611 19.9998 21.4751 19.9997C21.3432 19.9996 21.2114 19.9997 21.0795 19.9998C20.7934 20 20.5074 20 20.2213 19.9999C19.971 19.9998 19.7207 19.9998 19.4704 19.9998C19.4537 19.9998 19.4371 19.9998 19.42 19.9998C19.3524 19.9999 19.2848 19.9999 19.2172 19.9999C18.5842 20 17.9512 19.9999 17.3182 19.9997C16.7564 19.9995 16.1947 19.9995 15.633 19.9997C15.001 19.9999 14.3689 20 13.7369 19.9999C13.6695 19.9999 13.6021 19.9998 13.5347 19.9998C13.5181 19.9998 13.5015 19.9998 13.4843 19.9998C13.2342 19.9998 12.9841 19.9998 12.734 19.9999C12.4495 20 12.165 20 11.8805 19.9998C11.7354 19.9997 11.5904 19.9996 11.4453 19.9998C11.3124 19.9999 11.1794 19.9998 11.0465 19.9996C10.9986 19.9996 10.9506 19.9996 10.9027 19.9997C10.6344 20.0002 10.3748 19.9902 10.109 19.9532C10.0799 19.9494 10.0507 19.9456 10.0216 19.9418C9.41837 19.8632 8.81722 19.7415 8.25157 19.5214C8.20255 19.5025 8.1533 19.4846 8.10376 19.467C7.22046 19.148 6.3526 18.6267 5.66223 18.0089C5.59386 17.9478 5.52514 17.8878 5.45434 17.8293C5.35649 17.7476 5.26419 17.6611 5.17247 17.5732C5.15547 17.5569 5.13846 17.5406 5.12095 17.5239C5.01549 17.4219 4.917 17.3186 4.82469 17.2054C4.78505 17.1573 4.74332 17.1121 4.70015 17.0669C3.98173 16.2988 3.47098 15.3446 3.11009 14.381C3.1034 14.3634 3.09671 14.3458 3.08982 14.3277C2.77963 13.5066 2.77963 13.5066 2.78805 13.1473C2.76699 13.148 2.74593 13.1488 2.72423 13.1495C2.20565 13.1617 1.63071 12.9903 1.22081 12.6744C1.20577 12.6474 1.19133 12.62 1.17787 12.5922C1.12512 12.5668 1.12512 12.5668 1.07052 12.551C1.05635 12.5443 1.04218 12.5375 1.02758 12.5305C1.02758 12.5169 1.02758 12.5033 1.02758 12.4894C1.00982 12.4823 1.00982 12.4823 0.99169 12.4751C0.678983 12.3068 0.488787 11.934 0.319102 11.6463C0.302787 11.6194 0.302787 11.6194 0.286143 11.592C-0.0430092 11.0132 -0.071036 10.2256 0.114642 9.60223C0.359735 8.83687 0.868188 8.24569 1.60322 7.86591C1.9537 7.69096 2.36973 7.58741 2.76658 7.61628C2.77154 7.59457 2.77649 7.57286 2.7816 7.5505C2.80068 7.46726 2.82008 7.3841 2.83961 7.30096C2.848 7.26517 2.85635 7.22936 2.86464 7.19355C2.92628 6.92851 3.003 6.67084 3.09236 6.41317C3.10863 6.36625 3.12463 6.31926 3.14053 6.27223C3.18302 6.14727 3.22758 6.02368 3.28 5.9022C3.3032 5.84824 3.32538 5.79394 3.34753 5.73958C3.75692 4.74208 4.3925 3.79765 5.14966 3.01049C5.18505 2.97328 5.22039 2.93601 5.25566 2.89869C5.27135 2.88218 5.28705 2.86566 5.30321 2.84865C5.34574 2.80358 5.34574 2.80358 5.38582 2.74319C5.39999 2.74319 5.41416 2.74319 5.42876 2.74319C5.43438 2.73104 5.44 2.7189 5.44579 2.70638C5.47314 2.65841 5.50113 2.62911 5.54273 2.59195C5.56395 2.5729 5.56395 2.5729 5.58559 2.55346C5.6007 2.54016 5.61581 2.52686 5.63137 2.51316C5.64692 2.49934 5.66247 2.48552 5.67849 2.47129C5.78008 2.38167 5.88393 2.29583 5.99199 2.21341C6.04923 2.16912 6.10494 2.12353 6.16051 2.07734C6.73526 1.5998 7.39002 1.2176 8.06946 0.892652C8.08671 0.884313 8.10395 0.875974 8.12172 0.867382C8.41784 0.724895 8.72453 0.610895 9.03557 0.501983C9.05431 0.49536 9.07305 0.488737 9.09236 0.481913C10.1869 0.0993936 11.3167 -0.0015991 12.4729 0.000442108Z" fill="#BABABA"/>
<path d="M11.8689 4.60384C12.0067 4.60407 12.1445 4.60382 12.2824 4.60364C12.536 4.60335 12.7896 4.60347 13.0432 4.60376C13.2775 4.60403 13.5118 4.60414 13.7461 4.60409C13.7696 4.60408 13.7696 4.60408 13.7935 4.60408C13.8569 4.60406 13.9204 4.60405 13.9838 4.60403C14.5772 4.60389 15.1705 4.6042 15.7639 4.60474C16.2898 4.60522 16.8157 4.60533 17.3415 4.60512C17.4764 4.60507 17.6112 4.60501 17.746 4.60496C17.7626 4.60496 17.7792 4.60495 17.7963 4.60495C18.2373 4.60479 18.6783 4.60492 19.1193 4.60514C19.1668 4.60517 19.2143 4.60519 19.2618 4.60521C19.2933 4.60523 19.3248 4.60524 19.3563 4.60526C19.5905 4.60538 19.8246 4.60535 20.0587 4.60526C20.3251 4.60515 20.5915 4.60528 20.8579 4.60569C20.9936 4.60589 21.1293 4.60599 21.2649 4.60583C21.3895 4.60568 21.514 4.60583 21.6386 4.60619C21.6833 4.60628 21.728 4.60626 21.7727 4.60612C22.2479 4.60479 22.7033 4.66109 23.1623 4.77878C23.1884 4.78533 23.2144 4.79188 23.2413 4.79862C23.5836 4.8885 23.9194 4.99378 24.2357 5.14889C24.2501 5.15583 24.2645 5.16277 24.2793 5.16992C24.6396 5.3446 24.9693 5.54872 25.2877 5.7863C25.3188 5.80904 25.3188 5.80904 25.3505 5.83224C25.5167 5.95754 25.6632 6.10108 25.811 6.24561C25.8699 6.30316 25.9291 6.36038 25.9898 6.41616C26.1026 6.5203 26.1996 6.63524 26.2968 6.75269C26.3141 6.77352 26.3314 6.79436 26.3493 6.81582C26.7803 7.33951 27.1339 7.94001 27.3273 8.58267C27.337 8.61398 27.337 8.61398 27.3468 8.64592C27.4489 8.97829 27.5349 9.30859 27.5849 9.65187C27.5887 9.67613 27.5925 9.7004 27.5964 9.7254C27.6272 9.93753 27.6356 10.1459 27.6346 10.36C27.6345 10.3769 27.6345 10.3939 27.6345 10.4113C27.6332 10.8018 27.6025 11.1832 27.4906 11.5602C27.4753 11.6131 27.4612 11.6663 27.4472 11.7195C27.3141 12.2241 27.1364 12.6998 26.855 13.1473C26.8378 13.1771 26.8207 13.2069 26.8037 13.2367C26.099 14.4571 24.8286 15.3756 23.4481 15.7831C23.3067 15.8193 23.1635 15.8469 23.02 15.8743C22.9982 15.8786 22.9763 15.8828 22.9538 15.8872C22.8804 15.9006 22.8068 15.9121 22.7329 15.9231C22.6939 15.929 22.6939 15.929 22.6541 15.935C22.2946 15.9815 21.9319 15.9619 21.5704 15.9525C21.3735 15.9474 21.1766 15.9431 20.9797 15.9388C20.9329 15.9378 20.8861 15.9367 20.8392 15.9357C20.4702 15.9275 20.1012 15.9212 19.7322 15.9165C19.7071 15.9162 19.6819 15.9159 19.6561 15.9155C19.3965 15.9122 19.1369 15.9092 18.8774 15.9063C18.7443 15.9048 18.6112 15.9032 18.4781 15.9016C18.4384 15.9011 18.4384 15.9011 18.3979 15.9006C17.9713 15.8954 17.5449 15.8854 17.1184 15.8738C16.6779 15.8618 16.2375 15.8552 15.7968 15.8533C15.5503 15.8521 15.3044 15.8485 15.0581 15.8388C13.8099 15.7853 13.8099 15.7853 12.7466 16.3395C12.4201 16.6288 12.0067 16.9968 11.8051 17.383C11.7909 17.383 11.7768 17.383 11.7622 17.383C11.7622 17.3966 11.7622 17.4102 11.7622 17.4241C11.7318 17.4528 11.7318 17.4528 11.6891 17.4865C11.5824 17.5735 11.4839 17.6671 11.3851 17.7621C11.359 17.787 11.359 17.787 11.3323 17.8124C11.2412 17.8999 11.1539 17.9889 11.0698 18.0825C11.0009 18.1572 10.9273 18.2275 10.8538 18.298C10.8307 18.3204 10.8307 18.3204 10.8073 18.3433C10.7926 18.3574 10.7779 18.3715 10.7628 18.386C10.7496 18.3988 10.7363 18.4115 10.7227 18.4246C10.6887 18.4522 10.6887 18.4522 10.6458 18.4522C10.6458 17.6244 10.6458 16.7966 10.6458 15.9437C10.5608 15.9437 10.4757 15.9437 10.3881 15.9437C10.3039 15.9324 10.3039 15.9324 10.2311 15.9167C10.2039 15.911 10.1767 15.9053 10.1487 15.8994C10.1214 15.8937 10.0942 15.8879 10.0661 15.882C10.0133 15.8726 9.96056 15.8631 9.90777 15.8537C9.60753 15.7959 9.31939 15.7033 9.03558 15.5942C8.99611 15.5791 8.99611 15.5791 8.95583 15.5637C8.77426 15.4921 8.60081 15.4066 8.42774 15.3179C8.40648 15.3071 8.38523 15.2963 8.36333 15.2851C8.21317 15.2069 8.07715 15.1167 7.94066 15.0184C7.90135 14.9914 7.862 14.9644 7.82258 14.9375C7.65665 14.8217 7.4967 14.701 7.35395 14.5594C7.31535 14.5224 7.27497 14.4884 7.23352 14.4543C7.08464 14.331 6.95154 14.1956 6.82426 14.052C6.80865 14.0348 6.79305 14.0176 6.77696 13.9998C6.50158 13.691 6.27366 13.3609 6.07284 13.0034C6.06527 12.9899 6.05769 12.9765 6.04989 12.9626C5.87851 12.6547 5.74251 12.3314 5.64346 11.9959C5.63762 11.9766 5.63178 11.9574 5.62576 11.9375C5.24633 10.6805 5.30672 9.29147 5.87962 8.08919C5.89273 8.06131 5.89273 8.06131 5.9061 8.03287C6.04708 7.7353 6.20223 7.45429 6.39488 7.18448C6.40434 7.17122 6.41381 7.15796 6.42356 7.1443C6.47571 7.07186 6.52916 7.00046 6.5839 6.92979C6.60925 6.89704 6.63428 6.86406 6.6593 6.83108C6.80705 6.64086 6.97399 6.47026 7.1463 6.30034C7.1602 6.28658 7.17409 6.27282 7.18841 6.25864C7.3521 6.09716 7.51746 5.94377 7.7045 5.80686C7.71736 5.7973 7.73023 5.78774 7.74348 5.77789C8.36324 5.31776 9.07229 4.97599 9.8286 4.7775C9.85239 4.77081 9.87617 4.76411 9.90068 4.75722C10.544 4.58876 11.208 4.60229 11.8689 4.60384Z" fill="#FDFDFC"/>
<path d="M21.5521 7.53404C21.5747 7.54274 21.5973 7.55143 21.6206 7.56039C21.9938 7.72071 22.3021 8.05232 22.4481 8.41648C22.5897 8.82054 22.55 9.25102 22.3652 9.63261C22.2031 9.92854 21.9871 10.148 21.6809 10.3099C21.6641 10.3192 21.6473 10.3286 21.6301 10.3382C21.3287 10.4967 20.9125 10.5319 20.5783 10.4563C20.499 10.4324 20.4253 10.4048 20.3498 10.3715C20.3254 10.3609 20.3009 10.3502 20.2757 10.3392C20.1132 10.2616 19.9843 10.1649 19.856 10.0426C19.8434 10.0314 19.8309 10.0203 19.8179 10.0088C19.7916 9.98087 19.7916 9.98087 19.7916 9.93974C19.7774 9.93974 19.7633 9.93974 19.7487 9.93974C19.7156 9.89927 19.6863 9.85947 19.6574 9.81637C19.6489 9.80364 19.6403 9.79091 19.6315 9.77779C19.462 9.51558 19.4011 9.25661 19.3998 8.9515C19.3993 8.92533 19.3989 8.89916 19.3985 8.87219C19.3967 8.4616 19.5808 8.11554 19.8721 7.81805C20.3167 7.41534 20.9904 7.31055 21.5521 7.53404Z" fill="#BABABA"/>
<path d="M13.0018 7.72183C13.0579 7.76627 13.1088 7.81122 13.1576 7.86303C13.17 7.87485 13.1825 7.88667 13.1953 7.89885C13.5019 8.20345 13.6384 8.59514 13.6346 9.01359C13.6175 9.43529 13.4179 9.78766 13.1147 10.0837C13.1015 10.0968 13.0883 10.1099 13.0748 10.1234C12.7674 10.4058 12.3437 10.4849 11.9356 10.48C11.569 10.4691 11.2455 10.3085 10.9892 10.0631C10.9761 10.0522 10.963 10.0414 10.9495 10.0302C10.7667 9.87434 10.6318 9.6266 10.5599 9.40515C10.5535 9.38617 10.5471 9.36719 10.5406 9.34764C10.4196 8.92878 10.4981 8.52135 10.7168 8.14832C10.9338 7.80626 11.2305 7.58845 11.6284 7.46296C12.1039 7.35209 12.6144 7.43516 13.0018 7.72183Z" fill="#BABABA"/>
<path d="M15.1101 12.1958C15.1484 12.1955 15.1484 12.1955 15.1875 12.1952C15.2154 12.1952 15.2432 12.1952 15.2719 12.1952C15.3017 12.195 15.3315 12.1949 15.3612 12.1947C15.442 12.1942 15.5227 12.194 15.6034 12.1939C15.6539 12.1939 15.7044 12.1937 15.7549 12.1936C15.9312 12.1931 16.1075 12.1928 16.2838 12.1927C16.4479 12.1927 16.612 12.192 16.776 12.1912C16.9171 12.1905 17.0582 12.1901 17.1993 12.1901C17.2834 12.1901 17.3676 12.1899 17.4518 12.1894C17.531 12.1888 17.6102 12.1888 17.6894 12.1891C17.7321 12.1892 17.7749 12.1887 17.8176 12.1882C17.9706 12.1894 18.088 12.2004 18.203 12.3043C18.2703 12.4171 18.2641 12.5752 18.2352 12.7002C18.2192 12.7473 18.2006 12.7929 18.1815 12.8389C18.174 12.8601 18.1664 12.8814 18.1586 12.9033C18.1023 13.0568 18.0362 13.1701 17.9239 13.2912C17.9081 13.3102 17.8923 13.3292 17.8761 13.3488C17.6178 13.6443 17.2237 13.8697 16.8223 13.9229C16.2299 13.9661 15.7887 13.8578 15.3119 13.5178C15.0752 13.3221 14.8196 12.9575 14.7847 12.6542C14.7821 12.609 14.7814 12.5641 14.7813 12.5189C14.7808 12.5036 14.7803 12.4884 14.7797 12.4727C14.7793 12.3951 14.7841 12.354 14.8261 12.2857C14.9131 12.2094 14.9945 12.1963 15.1101 12.1958Z" fill="#BABABA"/>
<path d="M36.4972 7.59304V5.81818H44.8594V7.59304H41.7422V16H39.6143V7.59304H36.4972ZM45.4038 16V8.36364H47.457V9.69602H47.5366C47.6758 9.22206 47.9094 8.86411 48.2376 8.62216C48.5657 8.37689 48.9435 8.25426 49.3711 8.25426C49.4772 8.25426 49.5915 8.26089 49.7141 8.27415C49.8368 8.28741 49.9445 8.30563 50.0373 8.32883V10.2081C49.9379 10.1783 49.8003 10.1518 49.6246 10.1286C49.449 10.1054 49.2882 10.0938 49.1424 10.0938C48.8308 10.0938 48.5524 10.1617 48.3072 10.2976C48.0652 10.4302 47.873 10.6158 47.7305 10.8544C47.5913 11.093 47.5217 11.3681 47.5217 11.6797V16H45.4038ZM53.0911 16.1442C52.6039 16.1442 52.1697 16.0597 51.7885 15.8906C51.4074 15.7183 51.1058 15.4647 50.8837 15.13C50.665 14.7919 50.5556 14.371 50.5556 13.8672C50.5556 13.4429 50.6335 13.0866 50.7892 12.7983C50.945 12.5099 51.1571 12.2779 51.4256 12.1023C51.6941 11.9266 51.999 11.794 52.3404 11.7045C52.6851 11.6151 53.0463 11.5521 53.4242 11.5156C53.8683 11.4692 54.2263 11.4261 54.498 11.3864C54.7698 11.3433 54.967 11.2803 55.0897 11.1974C55.2123 11.1146 55.2736 10.992 55.2736 10.8295V10.7997C55.2736 10.4848 55.1742 10.2412 54.9753 10.0689C54.7798 9.89654 54.5014 9.81037 54.1401 9.81037C53.7589 9.81037 53.4557 9.89489 53.2303 10.0639C53.0049 10.2296 52.8558 10.4384 52.7828 10.6903L50.824 10.5312C50.9235 10.0672 51.119 9.66619 51.4107 9.32812C51.7024 8.98674 52.0785 8.7249 52.5392 8.54261C53.0033 8.35701 53.5402 8.2642 54.15 8.2642C54.5743 8.2642 54.9803 8.31392 55.3681 8.41335C55.7592 8.51278 56.1055 8.6669 56.4071 8.87571C56.7121 9.08452 56.9524 9.35298 57.128 9.68111C57.3037 10.0059 57.3915 10.3954 57.3915 10.8494V16H55.383V14.9411H55.3233C55.2007 15.1797 55.0366 15.3902 54.8311 15.5724C54.6257 15.7514 54.3787 15.8923 54.0904 15.995C53.802 16.0945 53.4689 16.1442 53.0911 16.1442ZM53.6976 14.6825C54.0092 14.6825 54.2843 14.6212 54.5229 14.4986C54.7615 14.3726 54.9488 14.2036 55.0847 13.9915C55.2206 13.7794 55.2885 13.5391 55.2885 13.2706V12.4602C55.2222 12.5033 55.1311 12.5431 55.0151 12.5795C54.9024 12.6127 54.7748 12.6442 54.6323 12.674C54.4898 12.7005 54.3472 12.7254 54.2047 12.7486C54.0622 12.7685 53.9329 12.7867 53.8169 12.8033C53.5684 12.8397 53.3513 12.8977 53.1657 12.9773C52.9801 13.0568 52.8359 13.1645 52.7331 13.3004C52.6304 13.433 52.579 13.5987 52.579 13.7976C52.579 14.0859 52.6834 14.3063 52.8922 14.4588C53.1043 14.608 53.3728 14.6825 53.6976 14.6825ZM59.0346 16V8.36364H61.1525V16H59.0346ZM60.0985 7.37926C59.7837 7.37926 59.5136 7.27486 59.2882 7.06605C59.0661 6.85393 58.9551 6.60038 58.9551 6.3054C58.9551 6.01373 59.0661 5.76349 59.2882 5.55469C59.5136 5.34257 59.7837 5.23651 60.0985 5.23651C60.4134 5.23651 60.6819 5.34257 60.9039 5.55469C61.1293 5.76349 61.242 6.01373 61.242 6.3054C61.242 6.60038 61.1293 6.85393 60.9039 7.06605C60.6819 7.27486 60.4134 7.37926 60.0985 7.37926ZM64.967 11.5852V16H62.8491V8.36364H64.8675V9.71094H64.957C65.1261 9.26681 65.4094 8.91548 65.8072 8.65696C66.2049 8.39512 66.6871 8.2642 67.2539 8.2642C67.7842 8.2642 68.2466 8.38021 68.641 8.61222C69.0354 8.84422 69.342 9.17566 69.5607 9.60653C69.7795 10.0341 69.8888 10.5445 69.8888 11.1378V16H67.771V11.5156C67.7743 11.0483 67.6549 10.6837 67.413 10.4219C67.171 10.1567 66.8379 10.0241 66.4137 10.0241C66.1287 10.0241 65.8768 10.0855 65.658 10.2081C65.4426 10.3307 65.2736 10.5097 65.1509 10.745C65.0316 10.977 64.9703 11.2571 64.967 11.5852ZM71.5581 16V8.36364H73.676V16H71.5581ZM72.622 7.37926C72.3071 7.37926 72.037 7.27486 71.8116 7.06605C71.5895 6.85393 71.4785 6.60038 71.4785 6.3054C71.4785 6.01373 71.5895 5.76349 71.8116 5.55469C72.037 5.34257 72.3071 5.23651 72.622 5.23651C72.9368 5.23651 73.2053 5.34257 73.4274 5.55469C73.6528 5.76349 73.7654 6.01373 73.7654 6.3054C73.7654 6.60038 73.6528 6.85393 73.4274 7.06605C73.2053 7.27486 72.9368 7.37926 72.622 7.37926ZM77.4904 11.5852V16H75.3725V8.36364H77.391V9.71094H77.4805C77.6495 9.26681 77.9329 8.91548 78.3306 8.65696C78.7283 8.39512 79.2106 8.2642 79.7773 8.2642C80.3076 8.2642 80.77 8.38021 81.1644 8.61222C81.5588 8.84422 81.8654 9.17566 82.0842 9.60653C82.3029 10.0341 82.4123 10.5445 82.4123 11.1378V16H80.2944V11.5156C80.2977 11.0483 80.1784 10.6837 79.9364 10.4219C79.6945 10.1567 79.3614 10.0241 78.9371 10.0241C78.6521 10.0241 78.4002 10.0855 78.1815 10.2081C77.966 10.3307 77.797 10.5097 77.6744 10.745C77.555 10.977 77.4937 11.2571 77.4904 11.5852ZM87.5218 19.0227C86.8358 19.0227 86.2475 18.9283 85.7569 18.7393C85.2697 18.5537 84.8819 18.3002 84.5936 17.9787C84.3052 17.6572 84.118 17.2959 84.0318 16.8949L85.9906 16.6314C86.0502 16.7839 86.1447 16.9264 86.274 17.0589C86.4032 17.1915 86.5739 17.2976 86.786 17.3771C87.0015 17.46 87.2633 17.5014 87.5716 17.5014C88.0323 17.5014 88.4118 17.3887 88.71 17.1634C89.0117 16.9413 89.1625 16.5684 89.1625 16.0447V14.6477H89.073C88.9802 14.8598 88.841 15.0604 88.6554 15.2493C88.4698 15.4382 88.2311 15.5923 87.9395 15.7116C87.6478 15.831 87.2998 15.8906 86.8954 15.8906C86.322 15.8906 85.8 15.758 85.3294 15.4929C84.862 15.2244 84.4892 14.8151 84.2108 14.2649C83.9357 13.7114 83.7981 13.0121 83.7981 12.1669C83.7981 11.3018 83.939 10.5793 84.2207 9.99929C84.5024 9.41927 84.877 8.98509 85.3443 8.69673C85.8149 8.40838 86.3303 8.2642 86.8904 8.2642C87.318 8.2642 87.676 8.33712 87.9643 8.48295C88.2527 8.62547 88.4847 8.80445 88.6603 9.01989C88.8393 9.23201 88.9769 9.44081 89.073 9.64631H89.1525V8.36364H91.2555V16.0746C91.2555 16.7242 91.0964 17.2678 90.7782 17.7053C90.46 18.1428 90.0192 18.4709 89.4558 18.6896C88.8957 18.9117 88.251 19.0227 87.5218 19.0227ZM87.5666 14.2997C87.908 14.2997 88.1963 14.2152 88.4316 14.0462C88.6703 13.8738 88.8526 13.6286 88.9785 13.3104C89.1078 12.9889 89.1724 12.6044 89.1724 12.157C89.1724 11.7095 89.1094 11.3217 88.9835 10.9936C88.8575 10.6622 88.6752 10.4053 88.4366 10.223C88.198 10.0407 87.908 9.94957 87.5666 9.94957C87.2186 9.94957 86.9252 10.044 86.6866 10.233C86.448 10.4186 86.2673 10.6771 86.1447 11.0085C86.0221 11.34 85.9608 11.7228 85.9608 12.157C85.9608 12.5978 86.0221 12.9789 86.1447 13.3004C86.2707 13.6186 86.4513 13.8655 86.6866 14.0412C86.9252 14.2135 87.2186 14.2997 87.5666 14.2997ZM93.3287 16V5.81818H96.8883C97.5976 5.81818 98.1826 5.94081 98.6433 6.18608C99.104 6.42803 99.447 6.7545 99.6724 7.16548C99.8978 7.57315 100.01 8.02557 100.01 8.52273C100.01 8.96023 99.9326 9.3215 99.7768 9.60653C99.6243 9.89157 99.4222 10.117 99.1703 10.2827C98.9217 10.4484 98.6516 10.571 98.3599 10.6506V10.75C98.6715 10.7699 98.9847 10.8793 99.2995 11.0781C99.6144 11.277 99.8779 11.562 100.09 11.9332C100.302 12.3045 100.408 12.7585 100.408 13.2955C100.408 13.8059 100.292 14.2649 100.06 14.6726C99.8282 15.0803 99.4619 15.4034 98.9615 15.642C98.461 15.8807 97.8097 16 97.0076 16H93.3287ZM94.5616 14.9062H97.0076C97.813 14.9062 98.3848 14.7505 98.7228 14.4389C99.0642 14.1241 99.2349 13.7429 99.2349 13.2955C99.2349 12.9508 99.1471 12.6326 98.9714 12.3409C98.7958 12.0459 98.5455 11.8106 98.2207 11.6349C97.8959 11.456 97.5114 11.3665 97.0673 11.3665H94.5616V14.9062ZM94.5616 10.2926H96.8485C97.2198 10.2926 97.5545 10.2197 97.8528 10.0739C98.1544 9.92803 98.3931 9.72254 98.5687 9.45739C98.7477 9.19223 98.8372 8.88068 98.8372 8.52273C98.8372 8.07528 98.6814 7.69579 98.3699 7.38423C98.0583 7.06937 97.5645 6.91193 96.8883 6.91193H94.5616V10.2926ZM105.377 16.1591C104.688 16.1591 104.083 15.995 103.563 15.6669C103.046 15.3388 102.641 14.8797 102.35 14.2898C102.061 13.6998 101.917 13.0104 101.917 12.2216C101.917 11.4261 102.061 10.7318 102.35 10.1385C102.641 9.54522 103.046 9.08452 103.563 8.75639C104.083 8.42827 104.688 8.2642 105.377 8.2642C106.067 8.2642 106.67 8.42827 107.187 8.75639C107.707 9.08452 108.112 9.54522 108.4 10.1385C108.692 10.7318 108.838 11.4261 108.838 12.2216C108.838 13.0104 108.692 13.6998 108.4 14.2898C108.112 14.8797 107.707 15.3388 107.187 15.6669C106.67 15.995 106.067 16.1591 105.377 16.1591ZM105.377 15.1051C105.901 15.1051 106.332 14.9709 106.67 14.7024C107.008 14.4339 107.258 14.081 107.421 13.6435C107.583 13.206 107.664 12.732 107.664 12.2216C107.664 11.7112 107.583 11.2356 107.421 10.7947C107.258 10.3539 107.008 9.99763 106.67 9.72585C106.332 9.45407 105.901 9.31818 105.377 9.31818C104.854 9.31818 104.423 9.45407 104.085 9.72585C103.747 9.99763 103.496 10.3539 103.334 10.7947C103.172 11.2356 103.09 11.7112 103.09 12.2216C103.09 12.732 103.172 13.206 103.334 13.6435C103.496 14.081 103.747 14.4339 104.085 14.7024C104.423 14.9709 104.854 15.1051 105.377 15.1051ZM113.95 8.36364V9.35795H109.992V8.36364H113.95ZM111.146 6.53409H112.319V13.8125C112.319 14.1439 112.367 14.3925 112.463 14.5582C112.563 14.7206 112.688 14.83 112.841 14.8864C112.997 14.9394 113.161 14.9659 113.333 14.9659C113.462 14.9659 113.568 14.9593 113.651 14.946C113.734 14.9295 113.8 14.9162 113.85 14.9062L114.089 15.9602C114.009 15.9901 113.898 16.0199 113.756 16.0497C113.613 16.0829 113.433 16.0994 113.214 16.0994C112.882 16.0994 112.558 16.0282 112.239 15.8857C111.924 15.7431 111.663 15.526 111.454 15.2344C111.248 14.9427 111.146 14.5748 111.146 14.1307V6.53409Z" fill="#BABABA"/>
</svg>
